<svg width="41" height="40" viewBox="0 0 41 40" fill="none" xmlns="http://www.w3.org/2000/svg">
<path d="M37.5024 20.9311C37.3802 20.2944 36.8233 19.8339 36.175 19.8336H34.8692L34.7731 19.2581C34.6773 18.6801 34.222 18.2285 33.6432 18.1376C33.5147 18.1173 33.3849 18.1038 33.257 18.0862C33.4785 17.0524 33.2945 15.973 32.7431 15.0709C33.0344 14.3152 32.9801 13.4698 32.5943 12.7577C32.2086 12.0455 31.5302 11.5381 30.7381 11.3693C30.2317 8.65895 27.8738 6.68882 25.1167 6.67221C25.049 6.67221 24.9888 6.681 24.9246 6.68303C24.484 5.99115 23.7577 5.53196 22.9437 5.43072C22.1298 5.32948 21.3131 5.59675 20.7165 6.15963C19.9649 5.67107 19.0879 5.4106 18.1914 5.4097C16.7471 5.41561 15.3858 6.08602 14.5006 7.22739C13.5177 6.94078 12.4579 7.11676 11.6203 7.70562C10.7828 8.29449 10.2586 9.2323 10.1958 10.2542C9.16339 10.6881 8.49164 11.6985 8.49099 12.8184C8.49311 13.0125 8.51578 13.2059 8.55861 13.3952C7.64563 14.7716 7.40707 16.488 7.91011 18.0612C7.72888 18.0862 7.5436 18.1085 7.36913 18.1342C6.78734 18.222 6.32789 18.6738 6.23037 19.254L6.13435 19.8315H4.82518C4.17793 19.832 3.62172 20.291 3.49842 20.9264L0.537234 36.1292C0.42159 36.7246 0.57841 37.3405 0.964708 37.8081C1.35101 38.2757 1.92626 38.5459 2.53277 38.5447H16.6348C17.1947 39.4684 18.8961 39.8972 20.5001 39.8972C22.0872 39.8972 23.7723 39.4786 24.3485 38.5447H38.4674C39.0737 38.5459 39.6488 38.2758 40.0351 37.8083C40.4214 37.3409 40.5783 36.7252 40.4629 36.1299L37.5024 20.9311ZM10.5359 14.0424C9.98684 13.7123 9.7248 13.0569 9.89489 12.4392C10.065 11.8216 10.6256 11.3927 11.2662 11.3902C11.7146 11.3889 12.1366 11.602 12.4016 11.9637C12.5456 12.1577 12.7821 12.2601 13.0221 12.2324C13.2621 12.2047 13.4691 12.0511 13.5651 11.8294C13.6612 11.6077 13.6316 11.3516 13.4876 11.1576C13.0284 10.5439 12.3326 10.1513 11.5698 10.0756C11.7715 9.12861 12.6066 8.45064 13.5748 8.44798C13.6574 8.45216 13.7395 8.46119 13.821 8.47503C13.7666 8.61366 13.7192 8.75495 13.679 8.89834C13.5948 9.2563 13.8121 9.6159 14.1682 9.70785C14.5242 9.79981 14.8885 9.5904 14.9882 9.23645C15.0651 8.93925 15.1832 8.65427 15.3391 8.38982C15.939 7.38491 17.0211 6.76738 18.1914 6.76215C18.8284 6.76497 19.4507 6.95292 19.9828 7.30313C19.8814 7.58789 19.8277 7.88742 19.8238 8.18966C19.8238 8.56313 20.1266 8.86588 20.5001 8.86588C20.8735 8.86588 21.1763 8.56313 21.1763 8.18966C21.1763 7.40407 21.8131 6.76722 22.5987 6.76722C23.3843 6.76722 24.0212 7.40407 24.0212 8.18966C24.0212 8.56313 24.3239 8.86588 24.6974 8.86588C25.0709 8.86588 25.3736 8.56313 25.3736 8.18966C25.3736 8.13759 25.3608 8.08822 25.3581 8.03616C27.2943 8.15562 28.9225 9.53198 29.3627 11.4213C29.0472 11.5132 28.7508 11.6609 28.4876 11.8575C28.2944 12.0025 28.1931 12.2395 28.222 12.4794C28.2509 12.7192 28.4056 12.9254 28.6277 13.0203C28.8499 13.1153 29.1058 13.0844 29.2991 12.9395C29.8395 12.5394 30.5859 12.5713 31.0902 13.016C31.5945 13.4608 31.7194 14.1974 31.39 14.7835C31.2428 15.0423 31.0191 15.2493 30.7496 15.3759C30.467 15.5127 30.3158 15.8261 30.3845 16.1325C30.4531 16.4389 30.7237 16.6577 31.0377 16.6607C31.1368 16.6609 31.2348 16.6389 31.3244 16.5965C31.5036 16.5096 31.673 16.4038 31.8295 16.2807C32.1791 17.2744 31.9599 18.3797 31.2575 19.1648L31.2412 19.1817C30.3603 20.136 28.9549 20.394 27.7925 19.8146C27.6786 19.7545 27.5692 19.6863 27.4652 19.6104C27.9633 18.9121 28.0321 17.9949 27.6437 17.2301C27.535 17.0142 27.3194 16.8728 27.0781 16.859C26.8368 16.8452 26.6064 16.9612 26.4739 17.1633C26.3413 17.3654 26.3266 17.6228 26.4353 17.8387C26.6576 18.2857 26.519 18.828 26.1093 19.1134C25.8688 19.2735 25.5717 19.3242 25.2916 19.2528C25.0116 19.1813 24.775 18.9946 24.6406 18.7388C24.5325 18.5227 24.3173 18.3806 24.0761 18.3662C23.8349 18.3518 23.6043 18.4672 23.4712 18.6688C23.3381 18.8705 23.3227 19.1279 23.4308 19.344C23.8274 20.1446 24.6445 20.6501 25.5379 20.6477C25.8288 20.6458 26.1167 20.5891 26.3866 20.4807C26.6281 20.6922 26.8942 20.8738 27.1791 21.0217C28.1429 21.5213 29.2636 21.6249 30.3026 21.3104C29.6344 22.2229 28.6342 22.8362 27.5179 23.0179C27.1706 23.0745 26.9247 23.3879 26.9525 23.7386C26.9802 24.0894 27.2722 24.3603 27.6241 24.3616C27.6601 24.3616 27.696 24.3588 27.7316 24.3535C28.1434 24.2822 28.5458 24.1647 28.9312 24.0032C29.1396 24.3715 29.3086 24.7606 29.4357 25.1643C29.459 25.2347 29.4708 25.3085 29.4709 25.3827C29.4707 25.6749 29.2961 25.9389 29.0273 26.0535C28.7162 26.1738 28.3631 26.0789 28.1543 25.8188C27.6305 25.2038 26.9448 24.7482 26.1749 24.5036C24.7136 24.014 24.1497 23.5765 23.9103 23.1004C24.2611 23.0566 24.6078 22.9843 24.9469 22.884C25.1779 22.813 25.3534 22.6241 25.4074 22.3886C25.4613 22.1531 25.3856 21.9066 25.2086 21.7421C25.0316 21.5776 24.7803 21.5201 24.5493 21.5911C24.1699 21.7075 23.7782 21.7794 23.3821 21.8054C22.6191 21.8651 21.8526 21.7494 21.1411 21.4673C20.874 21.3632 20.5702 21.4388 20.3831 21.656C19.3985 22.787 17.7134 22.9792 16.4995 22.099C15.2855 21.2189 14.9443 19.5575 15.7131 18.2701C15.8376 18.0623 15.8418 17.8037 15.724 17.5919C15.6062 17.3801 15.3844 17.2472 15.1421 17.2433C14.8998 17.2394 14.6738 17.3651 14.5493 17.573C14.388 17.8475 14.2582 18.1395 14.1625 18.4433C13.63 18.4152 13.2101 17.9797 13.2016 17.4465V17.4296C13.2012 17.2512 13.1296 17.0803 13.0026 16.9549C12.8756 16.8296 12.7038 16.7602 12.5253 16.7622C12.1503 16.7659 11.8484 17.0714 11.8491 17.4465C11.8521 18.6458 12.7565 19.6509 13.9488 19.7801C13.9512 20.0068 13.9718 20.233 14.0103 20.4564C12.5005 20.7831 10.9344 20.2404 9.95055 19.0494C8.96664 17.8584 8.72917 16.2181 9.33492 14.7971C9.48621 14.9501 9.65508 15.0847 9.83803 15.1981C10.1575 15.3852 10.568 15.2806 10.7591 14.9635C10.9501 14.6464 10.8506 14.2346 10.5359 14.0397V14.0424ZM7.5605 19.4745C7.87224 19.4285 8.19413 19.3879 8.51398 19.346C9.76427 21.344 12.1555 22.3141 14.4445 21.752C15.0595 22.9193 16.1833 23.7333 17.4842 23.9538C18.785 24.1743 20.1143 23.776 21.0796 22.8766C21.5391 23.0137 22.0124 23.0994 22.4909 23.1322C22.8175 24.371 23.7615 25.1216 25.7449 25.7864C26.2795 25.954 26.7565 26.2682 27.1217 26.6932C27.5276 27.1759 28.1247 27.4564 28.7554 27.4607C29.0313 27.4606 29.3042 27.405 29.5581 27.2971C30.3246 26.9695 30.8219 26.2163 30.822 25.3827C30.8226 25.1653 30.7879 24.9492 30.7192 24.743C30.5671 24.2652 30.3668 23.8041 30.1214 23.3668C31.2713 22.5402 32.0723 21.3152 32.3685 19.9303C32.5125 19.7592 32.6427 19.5769 32.758 19.3852C32.9845 19.4143 33.2111 19.44 33.4389 19.4779L35.8801 34.1614C31.1083 32.568 25.9481 32.568 21.1763 34.1614V25.6964C21.1763 25.323 20.8735 25.0202 20.5001 25.0202C20.1266 25.0202 19.8238 25.323 19.8238 25.6964V34.1641C15.0526 32.5693 9.89242 32.5674 5.12001 34.1587L7.5605 19.4745ZM2.00599 36.9434C1.87822 36.7891 1.82613 36.5857 1.86399 36.3889L4.82518 21.186H5.90714L3.78514 33.9389C3.71051 34.4031 3.88142 34.8729 4.2369 35.1806C4.59239 35.4883 5.08179 35.5901 5.53048 35.4496C9.13544 34.2817 12.976 34.038 16.6997 34.7409L16.4982 37.1923H2.53277C2.32877 37.1924 2.13545 37.1011 2.00599 36.9434ZM20.5001 38.5447C18.871 38.5447 17.9365 38.0632 17.7992 37.8489L18.0318 35.0425C18.7754 35.2277 19.5031 35.4717 20.2079 35.7722C20.2991 35.8161 20.3989 35.8392 20.5001 35.8398C20.6015 35.8397 20.7016 35.8165 20.7929 35.7722C21.4973 35.4699 22.2248 35.2243 22.9683 35.0378L23.2009 37.8482C23.0636 38.0632 22.1291 38.5447 20.5001 38.5447ZM38.9941 36.9434C38.8647 37.1011 38.6714 37.1924 38.4674 37.1923H24.504L24.3011 34.7362C28.0268 34.0347 31.8691 34.2805 35.4751 35.451C35.9236 35.5896 36.412 35.4863 36.7661 35.178C37.1202 34.8698 37.2898 34.4003 37.2143 33.9369L35.0943 21.1867H36.1763L39.1382 36.3882C39.1757 36.5855 39.1228 36.7892 38.9941 36.9434Z" fill="#2E8B57"/>
<path d="M18.2592 15.34C17.9823 15.5905 17.9608 16.0179 18.2111 16.2948C18.7848 16.9282 19.5429 17.3653 20.3784 17.5445C20 18.0778 19.3864 18.3942 18.7325 18.3932C18.359 18.3932 18.0563 18.6959 18.0563 19.0694C18.0563 19.4429 18.359 19.7456 18.7325 19.7456C20.1324 19.7512 21.3885 18.8866 21.883 17.577C23.5645 17.2983 24.8957 16.004 25.2216 14.3311C25.2719 14.0918 25.1891 13.844 25.0051 13.683C24.8211 13.5219 24.5645 13.4728 24.334 13.5545C24.1035 13.6361 23.9351 13.8359 23.8935 14.0768C23.7609 14.7743 23.3584 15.3913 22.7736 15.7938C21.6486 16.5515 20.1397 16.3795 19.214 15.388C18.9635 15.1112 18.5361 15.0897 18.2592 15.34Z" fill="#2E8B57"/>
<path d="M15.9018 14.6067C16.2753 14.6067 16.578 14.3039 16.578 13.9305C16.578 13.4642 16.7633 13.017 17.093 12.6872C17.4227 12.3575 17.8699 12.1723 18.3362 12.1723C18.7097 12.1723 19.0124 11.8695 19.0124 11.496C19.0124 11.1226 18.7097 10.8198 18.3362 10.8198C16.619 10.8217 15.2274 12.2133 15.2256 13.9305C15.2256 14.1098 15.2968 14.2818 15.4236 14.4086C15.5505 14.5354 15.7225 14.6067 15.9018 14.6067Z" fill="#2E8B57"/>
<path d="M21.1762 1.35245V0.676225C21.1762 0.302756 20.8734 0 20.5 0C20.1265 0 19.8237 0.302756 19.8237 0.676225V1.35245C19.8237 1.72592 20.1265 2.02867 20.5 2.02867C20.8734 2.02867 21.1762 1.72592 21.1762 1.35245Z" fill="#2E8B57"/>
<path d="M31.597 4.85246L30.9208 5.52868C30.745 5.69846 30.6745 5.94989 30.7364 6.18631C30.7983 6.42274 30.9829 6.60738 31.2194 6.66927C31.4558 6.73115 31.7072 6.66065 31.877 6.48486L32.5532 5.80864C32.729 5.63886 32.7995 5.38743 32.7376 5.151C32.6757 4.91458 32.4911 4.72994 32.2547 4.66805C32.0182 4.60617 31.7668 4.67667 31.597 4.85246Z" fill="#2E8B57"/>
<path d="M9.6015 6.683C9.87496 6.68294 10.1215 6.51818 10.2261 6.26553C10.3308 6.01288 10.2729 5.72208 10.0796 5.52868L9.40336 4.85246C9.23358 4.67667 8.98216 4.60617 8.74573 4.66805C8.5093 4.72994 8.32466 4.91458 8.26278 5.151C8.20089 5.38743 8.27139 5.63886 8.44718 5.80864L9.12341 6.48486C9.25019 6.61169 9.42217 6.68296 9.6015 6.683Z" fill="#2E8B57"/>
<path d="M14.8071 3.8375C14.8959 3.83731 14.9839 3.81986 15.066 3.78611C15.2318 3.71746 15.3635 3.58575 15.4321 3.41999C15.5007 3.25423 15.5006 3.068 15.4319 2.90229L14.6549 1.02779C14.5659 0.799481 14.3603 0.637185 14.1176 0.603573C13.8749 0.56996 13.633 0.670291 13.4853 0.865823C13.3376 1.06136 13.3072 1.32149 13.4059 1.54578L14.1822 3.42027C14.287 3.6729 14.5336 3.83757 14.8071 3.8375Z" fill="#2E8B57"/>
<path d="M27.2286 0.661887C26.8837 0.519206 26.4884 0.682947 26.3454 1.02773L25.5684 2.90222C25.4995 3.06801 25.4993 3.25441 25.5679 3.42033C25.6366 3.58625 25.7684 3.71807 25.9343 3.78672C26.0165 3.82047 26.1044 3.83792 26.1933 3.83812C26.4668 3.83818 26.7134 3.67352 26.8181 3.42088L27.5944 1.54639C27.6634 1.3806 27.6635 1.1942 27.5949 1.02828C27.5263 0.862355 27.3945 0.730538 27.2286 0.661887Z" fill="#2E8B57"/>
<path d="M34.2443 11.8892C34.3332 11.8891 34.4212 11.8714 34.5033 11.8372L36.3771 11.0609C36.6003 10.9684 36.7573 10.764 36.7889 10.5244C36.8205 10.2849 36.7219 10.0467 36.5302 9.89961C36.3386 9.75249 36.083 9.71878 35.8598 9.81119L33.9853 10.5875C33.6862 10.7104 33.5159 11.0278 33.579 11.345C33.6421 11.6621 33.9209 11.8902 34.2443 11.8892Z" fill="#2E8B57"/>
<path d="M6.49667 11.8373C6.84176 11.9804 7.23746 11.8166 7.3805 11.4715C7.52353 11.1264 7.35974 10.7307 7.01466 10.5877L5.14016 9.81136C4.79508 9.66851 4.39953 9.83245 4.25668 10.1775C4.11382 10.5226 4.27777 10.9182 4.62285 11.061L6.49667 11.8373Z" fill="#2E8B57"/>
</svg>
