<svg width="41" height="40" viewBox="0 0 41 40" fill="none" xmlns="http://www.w3.org/2000/svg">
<path d="M28.8252 13.4812L28.3972 12.0725C27.8536 10.4723 26.1157 9.61593 24.5155 10.1596C23.6153 10.4654 22.9084 11.1723 22.6026 12.0725L22.1746 13.4812C21.8144 14.6692 21.7388 15.9253 21.9539 17.1478C22.1501 18.1772 22.8036 19.0615 23.7299 19.5512L23.2506 30.2665C23.1864 30.8646 23.3804 31.4617 23.7839 31.9078C24.6517 32.857 26.1247 32.923 27.0738 32.0553C27.1252 32.0083 27.1743 31.9592 27.2212 31.9078C27.6157 31.4743 27.8094 30.8948 27.7546 30.3112L27.2726 19.5498C28.1977 19.0599 28.8501 18.1762 29.0459 17.1478C29.261 15.9253 29.1854 14.6692 28.8252 13.4812ZM27.7326 16.9158C27.5882 17.6553 27.0612 18.2621 26.3492 18.5085C26.079 18.6101 25.9049 18.8741 25.9179 19.1625L26.4246 30.4165C26.4479 30.6373 26.3751 30.8573 26.2246 31.0205C25.8232 31.4179 25.1767 31.4179 24.7752 31.0205C24.6172 30.8442 24.5455 30.6068 24.5792 30.3725L25.0819 19.1625C25.0949 18.8741 24.9208 18.6101 24.6506 18.5085C23.9386 18.2621 23.4116 17.6553 23.2672 16.9158C23.0889 15.9008 23.1517 14.8581 23.4506 13.8718L23.8786 12.4625C24.2097 11.5671 25.2041 11.1097 26.0996 11.4408C26.573 11.6159 26.9462 11.9892 27.1212 12.4625L27.5492 13.8718C27.8477 14.8582 27.9106 15.9008 27.7326 16.9158Z" fill="#2E8B57"/>
<path d="M18.4999 10C18.1318 10 17.8333 10.2985 17.8333 10.6667V16.3907L16.0286 18.1953C15.8951 18.3283 15.8241 18.5117 15.8333 18.7L16.4166 30.3667C16.4305 30.6182 16.3392 30.8643 16.1646 31.046C15.7997 31.4142 15.2053 31.4168 14.8371 31.0518C14.8351 31.0499 14.8332 31.0479 14.8313 31.046C14.6566 30.8643 14.5653 30.6182 14.5793 30.3667L15.1666 18.7C15.1759 18.5118 15.1052 18.3285 14.9719 18.1953L13.1666 16.3907V10.6667C13.1666 10.2985 12.8681 10 12.4999 10C12.1318 10 11.8333 10.2985 11.8333 10.6667V16.6667C11.8333 16.8435 11.9036 17.013 12.0286 17.138L13.8193 18.9293L13.2506 30.302C13.1901 31.5443 14.1481 32.6004 15.3903 32.6609C16.6326 32.7214 17.6888 31.7634 17.7493 30.5212C17.7528 30.4482 17.7528 30.3751 17.7493 30.3021L17.1806 18.9294L18.9713 17.1381C19.0963 17.0131 19.1666 16.8436 19.1666 16.6668V10.6668C19.1666 10.2985 18.8681 10 18.4999 10Z" fill="#2E8B57"/>
<path d="M14.4999 10C14.1318 10 13.8333 10.2985 13.8333 10.6667V16C13.8333 16.3682 14.1318 16.6667 14.4999 16.6667C14.8681 16.6667 15.1666 16.3682 15.1666 16V10.6667C15.1666 10.2985 14.8681 10 14.4999 10Z" fill="#2E8B57"/>
<path d="M16.4999 10C16.1318 10 15.8333 10.2985 15.8333 10.6667V16C15.8333 16.3682 16.1318 16.6667 16.4999 16.6667C16.8681 16.6667 17.1666 16.3682 17.1666 16V10.6667C17.1666 10.2985 16.8681 10 16.4999 10Z" fill="#2E8B57"/>
<path d="M20.5 0C9.45433 0 0.5 8.95433 0.5 20C0.5 31.0457 9.45433 40 20.5 40C31.5457 40 40.5 31.0457 40.5 20C40.4875 8.9595 31.5405 0.0125 20.5 0ZM20.5 38.6667C10.1907 38.6667 1.83333 30.3093 1.83333 20C1.83333 9.69067 10.1907 1.33333 20.5 1.33333C30.8093 1.33333 39.1667 9.69067 39.1667 20C39.1549 30.3044 30.8044 38.6549 20.5 38.6667Z" fill="#2E8B57"/>
<path d="M22.6641 32.5145C22.6284 32.1481 22.3023 31.88 21.9358 31.9158C21.9272 31.9166 21.9186 31.9176 21.91 31.9188L21.9127 31.9181C20.9741 32.0271 20.026 32.0271 19.0874 31.9181C18.7215 31.8752 18.3903 32.137 18.3474 32.5028C18.3045 32.8686 18.5662 33.1999 18.932 33.2428C19.973 33.3644 21.0245 33.3644 22.0654 33.2428C22.4318 33.2071 22.6999 32.881 22.6641 32.5145Z" fill="#2E8B57"/>
<path d="M30.7001 11.4092C30.4635 11.1271 30.043 11.0902 29.7609 11.3268C29.76 11.3276 29.7591 11.3284 29.7581 11.3292C29.4767 11.5665 29.4409 11.987 29.6781 12.2685C33.6977 17.0402 33.3902 24.0959 28.9708 28.4998C28.7099 28.7597 28.7092 29.182 28.9691 29.4428C29.229 29.7037 29.6513 29.7044 29.9121 29.4445C34.8235 24.5517 35.166 16.7116 30.7001 11.4092Z" fill="#2E8B57"/>
<path d="M23.6447 7.03938C21.0393 6.41496 18.3068 6.58279 15.7974 7.52137C15.4527 7.65096 15.2785 8.03546 15.4081 8.38004C15.5057 8.63979 15.7541 8.81171 16.0315 8.81196C16.1112 8.81154 16.1902 8.79696 16.2647 8.76871C18.5246 7.92363 20.9852 7.77271 23.3314 8.33538C23.6893 8.42188 24.0496 8.20196 24.1361 7.84404C24.2226 7.48613 24.0027 7.12588 23.6447 7.03938Z" fill="#2E8B57"/>
<path d="M11.9994 28.4667C9.75196 26.2231 8.49238 23.1757 8.50004 20C8.49346 17.4628 9.29713 14.9898 10.794 12.9413C11.0153 12.647 10.956 12.2291 10.6617 12.0078C10.3674 11.7866 9.94946 11.8458 9.72821 12.1402C9.72429 12.1454 9.72046 12.1507 9.71671 12.156C5.86229 17.455 6.42946 24.7693 11.0547 29.4107C11.3154 29.6715 11.7382 29.6717 11.999 29.411C12.2599 29.1503 12.26 28.7275 11.9994 28.4667Z" fill="#2E8B57"/>
</svg>
