<svg width="40" height="41" viewBox="0 0 40 41" fill="none" xmlns="http://www.w3.org/2000/svg">
<path d="M38.5093 26.5386V20.1656C38.5093 18.8185 37.4133 17.7226 36.0663 17.7226H32.4224C32.0391 17.7226 31.7408 18.0825 31.8122 18.4594L32.3007 21.0352H27.0435C27.9568 20.7512 28.8242 20.3231 29.6064 19.7728C30.3805 19.2281 31.0704 18.5651 31.6453 17.8132C32.0155 17.3289 32.3383 16.8076 32.6063 16.2598C32.9088 16.4039 33.2391 16.4804 33.5819 16.4804C34.8377 16.4804 35.8593 15.4587 35.8593 14.2029C35.8593 12.9471 34.8377 11.9254 33.5819 11.9254C33.5664 11.9254 33.5509 11.9263 33.5355 11.9266C33.5346 11.8986 33.5336 11.8706 33.5325 11.8427H34.5757C34.9187 11.8427 35.1968 11.5646 35.1968 11.2215V9.56522C35.1968 9.22216 34.9187 8.94406 34.5757 8.94406H33.3979C32.7696 5.39223 30.0736 2.49552 26.584 1.60859V0.621155C26.584 0.2781 26.3059 0 25.9628 0H22.6502C22.3071 0 22.0291 0.2781 22.0291 0.621155V1.60866C18.5394 2.4956 15.8434 5.39239 15.2152 8.94414H14.0374C13.6944 8.94414 13.4163 9.22224 13.4163 9.5653V11.2216C13.4163 11.5646 13.6944 11.8427 14.0374 11.8427H15.0806C15.0795 11.8707 15.0785 11.8987 15.0776 11.9267C15.0622 11.9264 15.0466 11.9255 15.0312 11.9255C13.7754 11.9255 12.7538 12.9471 12.7538 14.2029C12.7538 15.4587 13.7754 16.4804 15.0312 16.4804C15.3739 16.4804 15.7042 16.4039 16.0068 16.2598C16.4572 17.1803 17.061 18.0231 17.7861 18.7471C18.4573 19.4171 19.2309 19.984 20.0732 20.4204C20.5526 20.6688 21.0539 20.875 21.5696 21.0352H16.8532C15.5635 21.0352 14.4129 21.8389 13.9557 23.0228H3.51975C2.49223 23.0228 1.65636 23.8587 1.65636 24.8862V31.5942C1.65636 31.9373 1.93446 32.2154 2.27752 32.2154C2.62057 32.2154 2.89867 31.9373 2.89867 31.5942V26.5563H18.5509V36.2733H2.89859V34.9068C2.89859 34.5638 2.62049 34.2857 2.27744 34.2857C1.93438 34.2857 1.65628 34.5638 1.65628 34.9068V36.2733H0.621155C0.2781 36.2733 0 36.5514 0 36.8944V38.3022C7.84485e-05 39.3297 0.835947 40.1656 1.86339 40.1656H19.5859C19.6043 40.1656 19.6227 40.1647 19.641 40.1642C19.6502 40.1646 19.6593 40.1656 19.6688 40.1656H27.9503C28.2934 40.1656 28.5714 39.8875 28.5714 39.5445C28.5714 39.2015 28.2933 38.9234 27.9503 38.9234H21.3424C21.4114 38.729 21.4493 38.52 21.4493 38.3022V36.8944C21.4493 36.5513 21.1712 36.2733 20.8281 36.2733H19.7929V24.8861C19.7929 23.8586 18.9571 23.0227 17.9295 23.0227H15.3641C15.709 22.5653 16.2556 22.2774 16.8529 22.2774H21.342L22.1879 25.52L21.3685 35.3521C21.3512 35.5602 21.4396 35.7631 21.6037 35.8921L23.9225 37.7141C24.1452 37.889 24.4674 37.889 24.6901 37.7141L27.0089 35.8921C27.173 35.7631 27.2615 35.5602 27.2441 35.3521L26.4247 25.52L27.2708 22.2774H32.5363L33.3493 26.5643C32.5543 26.7769 31.967 27.5032 31.967 28.3644V33.0021C31.967 33.9595 32.6929 34.7503 33.6232 34.8537V38.9235H31.263C30.9199 38.9235 30.6418 39.2016 30.6418 39.5446C30.6418 39.8877 30.9199 40.1657 31.263 40.1657H34.2443C34.5874 40.1657 34.8655 39.8876 34.8655 39.5446V38.5291C35.2201 38.7279 35.6298 38.8406 36.0663 38.8406C37.3011 38.8406 38.3224 37.9416 38.4863 36.7313C38.5013 36.6778 38.5093 36.6214 38.5093 36.5632V34.828C39.3588 34.6549 40 33.902 40 33.0022V28.3644C40 27.4645 39.3588 26.7116 38.5093 26.5386ZM20.2071 37.5155V38.3023C20.2071 38.6448 19.9285 38.9235 19.586 38.9235H1.86339C1.52088 38.9235 1.24231 38.6449 1.24231 38.3023V37.5155H20.2071ZM17.9296 24.265C17.9725 24.265 18.0143 24.2694 18.0547 24.2777C18.3375 24.3357 18.5507 24.5865 18.5507 24.8861V25.3141H2.89859V24.8861C2.89859 24.5865 3.11189 24.3356 3.39462 24.2777C3.43502 24.2694 3.47684 24.265 3.51967 24.265H17.9296ZM31.8841 14.7558V12.2523C32.0215 12.199 32.1587 12.1446 32.2952 12.0884C32.2958 12.1306 32.2982 12.1731 32.2982 12.2153C32.2982 13.103 32.1525 13.9573 31.8841 14.7558ZM33.5817 13.1677C34.1527 13.1677 34.617 13.6321 34.617 14.2029C34.617 14.7738 34.1527 15.2381 33.5818 15.2381C33.4022 15.2381 33.2301 15.1923 33.0765 15.106C33.2808 14.4874 33.4219 13.8403 33.491 13.1722C33.5211 13.1696 33.5513 13.1677 33.5817 13.1677ZM26.5839 2.89671C29.385 3.73007 31.5426 6.07316 32.1337 8.94406H26.5839V2.89671ZM23.2713 1.24223H25.3417V8.94406H23.2713V1.24223ZM15.0311 15.2381C14.4602 15.2381 13.9959 14.7737 13.9959 14.2029C13.9959 13.632 14.4602 13.1676 15.0311 13.1676C15.0615 13.1676 15.0918 13.1695 15.1219 13.1721C15.1909 13.8403 15.332 14.4873 15.5364 15.1059C15.3829 15.1923 15.2108 15.2381 15.0311 15.2381ZM16.7288 14.7558C16.4604 13.9573 16.3148 13.103 16.3148 12.2153C16.3148 12.1731 16.3172 12.1306 16.3177 12.0884C16.4543 12.1447 16.5914 12.199 16.7288 12.2524V14.7558ZM14.6584 10.6004V10.1864H18.0125C18.3555 10.1864 18.6336 9.90827 18.6336 9.5653C18.6336 9.22224 18.3555 8.94414 18.0125 8.94414H16.4792C17.0703 6.07324 19.228 3.73014 22.029 2.89679V8.94414H20.6625C20.3195 8.94414 20.0414 9.22224 20.0414 9.5653C20.0414 9.90835 20.3195 10.1864 20.6625 10.1864H33.9544V10.6004H14.6584ZM29.0728 11.8427C27.5246 12.227 25.931 12.4224 24.3065 12.4224C22.682 12.4224 21.0884 12.2271 19.5401 11.8427H29.0728ZM24.3065 36.4358L22.6344 35.122L23.3873 26.0869H25.2256L25.9785 35.122L24.3065 36.4358ZM25.3173 24.8447H23.2957L22.6259 22.2774H25.987L25.3173 24.8447ZM24.3065 20.207C21.7293 20.207 19.4334 18.9803 17.971 17.0806V12.6914C20.0102 13.3378 22.1329 13.6645 24.3065 13.6645C26.48 13.6645 28.6028 13.3377 30.6419 12.6914V17.0807C29.1795 18.9804 26.8837 20.207 24.3065 20.207ZM36.0663 18.9648C36.7284 18.9648 37.2671 19.5035 37.2671 20.1656C37.2671 20.8277 36.7284 21.3664 36.0663 21.3664C35.4042 21.3664 34.8655 20.8277 34.8655 20.1656C34.8655 19.5035 35.4042 18.9648 36.0663 18.9648ZM34.8655 22.2919C35.2205 22.4931 35.63 22.6087 36.0663 22.6087C36.5025 22.6087 36.9122 22.4931 37.2671 22.2919V26.501H34.8655V22.2919ZM33.1724 18.9648H33.94C33.7388 19.3197 33.6232 19.7293 33.6232 20.1656V21.3419L33.1724 18.9648ZM37.2671 36.4646C37.2648 36.4786 37.263 36.4929 37.2618 36.5074C37.2057 37.1293 36.6917 37.5983 36.0662 37.5983C35.4407 37.5983 34.9267 37.1293 34.8706 36.5074C34.8693 36.493 34.8676 36.4789 34.8653 36.4649V34.8654H37.2669V36.4646H37.2671ZM38.7578 33.0021C38.7578 33.3446 38.4792 33.6232 38.1366 33.6232H33.8302C33.5016 33.6232 33.2326 33.3666 33.2112 33.0434H34.5755C34.9186 33.0434 35.1966 32.7653 35.1966 32.4223C35.1966 32.0792 34.9185 31.8011 34.5755 31.8011H33.209V31.3871H34.5755C34.9186 31.3871 35.1966 31.109 35.1966 30.7659C35.1966 30.4229 34.9185 30.1448 34.5755 30.1448H33.209V29.7307H34.5755C34.9186 29.7307 35.1966 29.4526 35.1966 29.1096C35.1966 28.7665 34.9185 28.4884 34.5755 28.4884H33.209V28.3642C33.209 28.0217 33.4876 27.7431 33.8302 27.7431H38.1366C38.4791 27.7431 38.7578 28.0216 38.7578 28.3642V33.0021Z" fill="#2E8B57"/>
</svg>
