<svg width="40" height="40" viewBox="0 0 40 40" fill="none" xmlns="http://www.w3.org/2000/svg">
<path d="M13.0941 9.21258C15.7152 9.79838 18.4068 10.0957 21.0931 10.0957C23.7793 10.0957 26.4703 9.79891 29.1067 9.2089C29.36 9.14533 29.5281 8.90471 29.5008 8.64517C29.1251 5.04367 26.5607 2.08892 23.2928 1.15059V0.525383C23.2928 0.235371 23.058 0 22.7675 0C22.4769 0 22.2421 0.235371 22.2421 0.525383V0.928351C21.8638 0.87266 21.4813 0.834833 21.0915 0.834833C20.7027 0.834833 20.3213 0.87266 19.9435 0.927826V0.525383C19.9435 0.235371 19.7087 0 19.4181 0C19.1276 0 18.8928 0.235371 18.8928 0.525383V1.15006C15.6259 2.08787 13.0605 5.04315 12.6854 8.64517C12.6575 8.90996 12.8335 9.15426 13.0941 9.21258ZM18.8928 2.25126V3.87837C18.8928 4.16839 19.1276 4.40376 19.4181 4.40376C19.7087 4.40376 19.9435 4.16839 19.9435 3.87837V1.98805C20.3202 1.92448 20.7038 1.8856 21.0941 1.8856C21.4834 1.8856 21.8659 1.92448 22.2421 1.98752V3.87837C22.2421 4.16839 22.4769 4.40376 22.7675 4.40376C23.058 4.40376 23.2928 4.16839 23.2928 3.87837V2.25126C25.8809 3.11289 27.9188 5.43456 28.3927 8.28896C23.5939 9.29297 18.5702 9.28981 13.7929 8.28896C14.2662 5.43456 16.3031 3.11342 18.8928 2.25126ZM21.0925 8.07565C20.0003 8.07565 18.9054 7.95482 17.8399 7.71682C17.5567 7.65325 17.3781 7.37269 17.4411 7.08951C17.5047 6.80633 17.7863 6.63033 18.0679 6.69127C20.0512 7.13417 22.1333 7.13417 24.1161 6.69127C24.3988 6.63033 24.6798 6.80633 24.7429 7.08951C24.8065 7.37269 24.6278 7.65377 24.3446 7.71682C23.2792 7.95482 22.1848 8.07565 21.0925 8.07565ZM14.469 11.6955C14.6682 11.9078 15.0007 11.9183 15.2114 11.7202C15.4231 11.5222 15.4347 11.1896 15.2366 10.9773C15.1047 10.836 14.4107 10.1436 13.7177 10.4057C13.0164 10.6705 12.988 11.6272 12.979 11.9414C12.9312 13.5717 13.8759 14.4885 14.5762 14.8568C15.0617 19.2285 18.5234 21.1981 20.8766 21.1981C23.2298 21.1981 26.6921 19.229 27.1775 14.8568C27.8778 14.4885 28.822 13.5712 28.7747 11.9419C28.7647 11.6272 28.7368 10.671 28.0355 10.4057C27.3441 10.1457 26.6485 10.8365 26.5166 10.9773C26.319 11.1885 26.3306 11.5195 26.5407 11.7181C26.752 11.9167 27.0835 11.9057 27.2831 11.6966C27.3887 11.5847 27.5432 11.4696 27.6446 11.4213C27.6745 11.5001 27.7155 11.6635 27.7239 11.9724C27.7686 13.4923 26.6574 13.9479 26.5476 13.9894L24.5023 14.4375C22.0955 14.1785 19.6572 14.1785 17.2515 14.4375L15.2061 13.9894C15.0811 13.9421 13.9846 13.4834 14.0298 11.9724C14.0387 11.664 14.0797 11.5006 14.1086 11.4213C14.21 11.4702 14.3645 11.5847 14.469 11.6955ZM15.6848 15.1704L16.735 15.4005L17.0471 18.2087C16.4093 17.4616 15.9012 16.465 15.6848 15.1704ZM24.7077 18.2071L25.0192 15.4005L26.0695 15.1704C25.853 16.4644 25.345 17.4606 24.7077 18.2071ZM23.9574 15.4363L23.5345 19.2479C22.5725 19.8878 21.5564 20.1479 20.8766 20.1479C20.1968 20.1479 19.1812 19.8878 18.2203 19.249L17.7963 15.4363C19.8421 15.2434 21.9106 15.2434 23.9574 15.4363ZM31.9275 28.0433C32.0021 28.2619 32.2059 28.399 32.4245 28.399C32.4807 28.399 32.538 28.3896 32.5942 28.3707C32.8685 28.2766 33.0156 27.9782 32.9215 27.7034C31.8891 24.6825 29.3536 22.169 26.3017 21.1382L26.3064 21.0526C26.3222 20.7631 26.1005 20.5151 25.811 20.4994C25.5241 20.4836 25.2735 20.7053 25.2578 20.9953L25.1238 23.4415L23.5986 22.7259C23.3343 22.6025 23.0223 22.716 22.8998 22.9781C22.7769 23.2408 22.8893 23.5534 23.152 23.6769L25.3823 24.7234C25.4532 24.7565 25.5294 24.7734 25.6056 24.7734C25.6991 24.7734 25.7921 24.7487 25.8751 24.6988C26.0253 24.6094 26.121 24.4508 26.1299 24.2764L26.2418 22.2358C27.0099 22.5231 27.7391 22.9125 28.4074 23.389L27.2385 28.0612H16.3846L16.3841 26.1304C16.3867 26.0863 16.4177 25.4842 16.2411 24.7392C16.2648 24.7319 16.29 24.734 16.3126 24.7234L18.5423 23.6769C18.805 23.5534 18.918 23.2408 18.7945 22.9781C18.6716 22.7154 18.36 22.602 18.0958 22.7259L16.5711 23.4415L16.4371 20.9953C16.4219 20.7053 16.1718 20.4831 15.8839 20.4994C15.5939 20.5151 15.3722 20.7631 15.3885 21.0526L15.3963 21.1939C14.83 21.3946 14.2731 21.6426 13.7419 21.9452C13.4687 21.8648 13.1782 21.8097 12.8682 21.7839C12.5367 19.7759 11.0062 19.7712 10.1373 19.7712L6.29146 19.7728C5.00795 19.7728 3.91935 20.6218 3.55631 21.7871C0.759703 22.013 0 24.6646 0 26.0994V32.973C0 33.263 0.234846 33.4984 0.525383 33.4984C0.815919 33.4984 1.05077 33.263 1.05077 32.973V26.101C1.05129 25.9754 1.09385 23.1993 3.43863 22.8515C3.54948 24.3299 4.78518 25.4994 6.29093 25.4994L10.1367 25.501C11.0882 25.501 12.8319 25.4931 12.926 22.8552C13.588 22.9387 14.1249 23.1804 14.5153 23.5928C15.4079 24.5359 15.3359 26.0548 15.3343 26.1V32.9735C15.3343 33.2635 15.5692 33.4989 15.8597 33.4989C16.1503 33.4989 16.3851 33.2635 16.3851 32.9735L16.3846 29.1125H27.6493C27.8905 29.1125 28.1001 28.9486 28.1589 28.7148L29.309 24.1166C29.5722 24.3552 29.8228 24.6079 30.0582 24.8732L28.6922 30.6471C28.6822 30.6871 28.678 30.7275 28.678 30.768V39.4321C28.678 39.7221 28.9128 39.9574 29.2034 39.9574C29.4939 39.9574 29.7288 39.7221 29.7288 39.4321V30.8294L30.8841 25.9455C31.3191 26.6001 31.6748 27.3036 31.9275 28.0433ZM10.5507 24.4445V23.2188C10.5507 22.9287 10.3159 22.6934 10.0253 22.6934C9.73481 22.6934 9.49997 22.9287 9.49997 23.2188V24.4503L8.54325 24.4497V23.2188C8.54325 22.9287 8.3084 22.6934 8.01786 22.6934C7.72733 22.6934 7.49248 22.9287 7.49248 23.2188V24.4492L6.60563 24.4487V23.2182C6.60563 22.9282 6.37079 22.6928 6.08025 22.6928C5.78972 22.6928 5.55487 22.9282 5.55487 23.2182V24.2884C4.92231 24.0053 4.47889 23.3727 4.47889 22.6356C4.47889 21.6363 5.29218 20.823 6.29146 20.823L10.1373 20.8214C11.1518 20.8214 11.8847 20.8214 11.8847 22.6356C11.8847 24.1923 11.3441 24.413 10.5507 24.4445ZM15.2855 22.8767C15.1667 22.7506 15.0364 22.6387 14.9019 22.5337C15.0848 22.447 15.2702 22.3713 15.4573 22.2972L15.503 23.1321C15.4352 23.0454 15.3632 22.9597 15.2855 22.8767ZM39.4026 19.87H37.9599C37.7409 18.9668 36.9323 18.2938 35.9619 18.2938H30.5195C29.381 18.2938 28.4573 19.2169 28.4573 20.3559C28.4573 21.495 29.3804 22.4181 30.5195 22.4181H35.9619C36.9034 22.4181 37.6888 21.7834 37.9358 20.9213H38.8778V23.9438L34.6327 24.7277C34.3831 24.7734 34.2029 24.9909 34.2029 25.2441V30.4675C33.3224 30.5095 32.6725 30.727 32.2511 31.151C31.6238 31.782 31.628 32.6672 31.6328 33.448L31.6333 37.0941C31.6333 38.6729 32.9178 39.9574 34.4966 39.9574C36.0754 39.9574 37.36 38.6729 37.36 37.0941L37.3605 33.448C37.3652 32.6672 37.3699 31.782 36.7421 31.151C36.3964 30.8032 35.9041 30.5893 35.2532 30.5V25.6812L39.4983 24.8974C39.7478 24.8516 39.928 24.6341 39.928 24.3809V20.3953C39.928 20.1053 39.6932 19.87 39.4026 19.87ZM36.3092 33.4422L36.3087 37.0941C36.3087 38.0934 35.4954 38.9067 34.4961 38.9067C33.7595 38.9067 33.1269 38.4633 32.8438 37.8312H33.914C34.2045 37.8312 34.4394 37.5958 34.4394 37.3058C34.4394 37.0158 34.2045 36.7805 33.914 36.7805H32.6835V35.8936H33.914C34.2045 35.8936 34.4394 35.6582 34.4394 35.3682C34.4394 35.0782 34.2045 34.8428 33.914 34.8428H32.6835V33.8861H33.9145C34.205 33.8861 34.4399 33.6507 34.4399 33.3607C34.4399 33.0707 34.205 32.8354 33.9145 32.8354H32.693C32.7145 32.446 32.7828 32.1072 32.9961 31.8923C33.2541 31.6328 33.759 31.5009 34.4966 31.5009C35.2343 31.5009 35.7391 31.6322 35.9971 31.8923C36.316 32.2128 36.3129 32.8101 36.3092 33.4422ZM8.22276 28.8015C5.68989 28.8015 1.40277 29.2475 1.40277 30.9193V39.4746C1.40277 39.7646 1.63762 40 1.92815 40C2.21869 40 2.45354 39.7646 2.45354 39.4746V32.1403C3.08872 32.4434 3.95088 32.6536 4.86714 32.7938V37.2144C4.86714 37.5044 5.10199 37.7398 5.39253 37.7398C5.68306 37.7398 5.91791 37.5044 5.91791 37.2144V32.9241C6.73488 33.0035 7.54239 33.0376 8.22329 33.0376C8.2711 33.0376 8.32364 33.0361 8.3725 33.0361V35.3372C8.3725 35.6272 8.60734 35.8626 8.89788 35.8626C9.18841 35.8626 9.42326 35.6272 9.42326 35.3372V33.0056C9.87351 32.983 10.3422 32.9473 10.8118 32.8952V37.5927C10.8118 37.8827 11.0467 38.1181 11.3372 38.1181C11.6278 38.1181 11.8626 37.8827 11.8626 37.5927V32.7471C12.17 32.694 12.4679 32.6326 12.7516 32.5622V35.3372C12.7516 35.6272 12.9864 35.8626 13.2769 35.8626C13.5675 35.8626 13.8023 35.6272 13.8023 35.3372V32.2217C13.8659 32.1949 13.9326 32.1692 13.992 32.1408V39.41C13.992 39.7 14.2268 39.9354 14.5174 39.9354C14.8079 39.9354 15.0428 39.7 15.0428 39.41V30.9198C15.0428 29.2475 10.7562 28.8015 8.22276 28.8015ZM13.4246 31.2618C12.9118 30.7948 10.7787 30.4449 8.22276 30.4449C5.66678 30.4449 3.53372 30.7953 3.02095 31.2618C2.72568 31.141 2.53812 31.0217 2.4672 30.9198C2.74407 30.5195 4.80883 29.8522 8.22276 29.8522C11.6367 29.8522 13.7009 30.5195 13.9778 30.9193C13.9074 31.0212 13.7198 31.1405 13.4246 31.2618ZM26.1436 34.8066C26.1436 35.0966 25.9087 35.332 25.6182 35.332H16.1355C15.845 35.332 15.6102 35.0966 15.6102 34.8066C15.6102 34.5166 15.845 34.2812 16.1355 34.2812H25.6182C25.9082 34.2812 26.1436 34.5166 26.1436 34.8066Z" fill="#2E8B57"/>
</svg>
