<svg width="40" height="40" viewBox="0 0 40 40" fill="none" xmlns="http://www.w3.org/2000/svg">
<path d="M10.3545 8.01667C11.1134 5.62556 13.0323 3.64778 15.5556 2.56444V5.55556C15.5556 5.85024 15.6727 6.13286 15.881 6.34123C16.0894 6.5496 16.372 6.66667 16.6667 6.66667C16.9614 6.66667 17.244 6.5496 17.4524 6.34123C17.6608 6.13286 17.7778 5.85024 17.7778 5.55556V1.11111C17.7778 0.816426 17.8949 0.533811 18.1033 0.325437C18.3116 0.117063 18.5943 0 18.8889 0H21.1112C21.4058 0 21.6885 0.117063 21.8968 0.325437C22.1052 0.533811 22.2223 0.816426 22.2223 1.11111V5.55556C22.2223 5.85024 22.3393 6.13286 22.5477 6.34123C22.7561 6.5496 23.0387 6.66667 23.3334 6.66667C23.6281 6.66667 23.9107 6.5496 24.1191 6.34123C24.3274 6.13286 24.4445 5.85024 24.4445 5.55556V2.56444C27.0045 3.66333 28.9412 5.68111 29.6778 8.11889C29.3923 8.35 28.9156 8.63 28.1723 8.90111C26.5145 9.50556 23.7334 10 19.4156 10C16.3056 10 13.8067 9.51556 12.12 8.9C11.3067 8.60333 10.7223 8.29 10.3545 8.01667Z" fill="#2E8B57"/>
<path fill-rule="evenodd" clip-rule="evenodd" d="M28.9333 10.9885C29.9167 10.6285 30.6922 10.1974 31.2433 9.70187C31.8733 10.3052 32.2222 10.9685 32.2222 11.6663C32.2222 12.9974 30.9511 14.2074 28.8778 15.103C28.938 16.3062 28.753 17.5091 28.334 18.6386C27.9151 19.7681 27.2709 20.8007 26.4406 21.6736C25.6103 22.5465 24.6112 23.2415 23.504 23.7164C22.3969 24.1913 21.2047 24.4362 20 24.4362C18.7953 24.4362 17.6031 24.1913 16.496 23.7164C15.3888 23.2415 14.3897 22.5465 13.5594 21.6736C12.7291 20.8007 12.0849 19.7681 11.666 18.6386C11.247 17.5091 11.062 16.3062 11.1222 15.103C9.04889 14.2074 7.77778 12.9974 7.77778 11.6663C7.77778 10.9441 8.15111 10.2585 8.82333 9.63965L8.94889 9.73965C9.55333 10.2074 10.38 10.6308 11.36 10.9874C13.3278 11.7063 16.0922 12.2219 19.4156 12.2219C23.8689 12.2219 26.9367 11.7163 28.9333 10.9885ZM13.34 15.8596C13.4167 17.5744 14.152 19.1935 15.3925 20.3799C16.6331 21.5662 18.2835 22.2282 20 22.2282C21.7165 22.2282 23.3669 21.5662 24.6075 20.3799C25.848 19.1935 26.5833 17.5744 26.66 15.8596C24.7444 16.3708 22.4556 16.6663 20 16.6663C17.5444 16.6663 15.2556 16.3696 13.34 15.8596ZM0 39.9996H23.3333V27.2219L21.1111 28.8885V33.2185C20.7469 33.3025 20.3737 33.3409 20 33.333C19.4722 33.333 19.1167 33.2774 18.8889 33.2185V29.1352L13.7256 25.1196C7.24444 26.3641 0 29.2641 0 33.333V39.9996ZM7.77778 37.7774H16.6667V32.4219L9.41667 33.6308L11.5011 27.8996C10.2383 28.2244 8.99513 28.6214 7.77778 29.0885V37.7774ZM2.22222 37.7774H5.55556V30.0874L5.47333 30.1308C4.29111 30.7574 3.42667 31.3963 2.88222 31.9974C2.34889 32.5885 2.22222 33.0252 2.22222 33.333V37.7774Z" fill="#2E8B57"/>
<path d="M29.5223 21.8331C30.1645 21.1775 31.0556 21.8386 30.8601 22.7353L30.8312 22.8664C30.7313 23.3234 30.7351 23.797 30.8423 24.2524C30.9495 24.7077 31.1574 25.1332 31.4508 25.4976C31.7441 25.862 32.1154 26.1561 32.5374 26.3581C32.9593 26.5601 33.4211 26.6649 33.8889 26.6649C34.3567 26.6649 34.8186 26.5601 35.2405 26.3581C35.6625 26.1561 36.0338 25.862 36.3271 25.4976C36.6205 25.1332 36.8284 24.7077 36.9356 24.2524C37.0428 23.797 37.0466 23.3234 36.9467 22.8664L36.9178 22.7353C36.7223 21.8386 37.6134 21.1786 38.2556 21.8342C39.3757 22.9752 40.0023 24.5109 40.0001 26.1098C40.0007 27.1461 39.7376 28.1656 39.2355 29.0722C38.7334 29.9788 38.0089 30.7427 37.1301 31.292C36.8201 31.4853 36.6667 31.8564 36.6667 32.222V37.7775C36.6667 38.3669 36.4326 38.9321 36.0159 39.3489C35.5991 39.7656 35.0339 39.9998 34.4445 39.9998H33.3334C32.744 39.9998 32.1788 39.7656 31.762 39.3489C31.3453 38.9321 31.1112 38.3669 31.1112 37.7775V32.222C31.1112 31.8564 30.9578 31.4853 30.6478 31.292C29.7689 30.7426 29.0442 29.9785 28.5421 29.0717C28.04 28.1649 27.777 27.1452 27.7778 26.1086C27.7778 24.4442 28.4434 22.9342 29.5223 21.8331Z" fill="#2E8B57"/>
</svg>
