<svg width="40" height="41" viewBox="0 0 40 41" fill="none" xmlns="http://www.w3.org/2000/svg">
<path d="M38.0193 33.6999C34.02 31.5953 30.9606 30.4266 28.2434 29.9653L28.5394 29.5586C28.6554 29.3986 28.6948 29.1966 28.6474 29.0052L28.028 26.5299C29.6867 24.1913 30.6667 21.2699 30.6667 18.4999V15.8332H31.3333H32.6667C33.0354 15.8332 33.3333 15.5346 33.3333 15.1666C33.3333 14.7979 33.0353 14.5 32.6667 14.5H32V13.8333C32 11.976 31.5627 10.2266 30.7787 8.67066L24.7927 9.82132C24.7506 9.82934 24.7086 9.83331 24.6667 9.83331C24.492 9.83331 24.3221 9.76397 24.196 9.63863C24.04 9.482 23.9707 9.25865 24.012 9.04126L25.1053 3.30123C24.5406 3.04722 23.9507 2.82721 23.3333 2.65192V2.51062C23.3333 1.40197 22.4313 0.5 21.3227 0.5H18.678C17.5686 0.5 16.6666 1.40197 16.6666 2.51069V2.652C16.05 2.82737 15.46 3.0473 14.8953 3.30131L15.9887 9.04134C16.03 9.25865 15.9606 9.482 15.8046 9.63871C15.6787 9.76405 15.5086 9.83339 15.3333 9.83339C15.2913 9.83339 15.2493 9.82942 15.2073 9.82139L9.22203 8.67074C8.43801 10.2267 8.00005 11.9761 8.00005 13.8334V14.5H7.33342C6.96543 14.5 6.66679 14.7981 6.66679 15.1667C6.66679 15.5347 6.96543 15.8333 7.33342 15.8333H8.66676H9.33339V18.5C9.33339 21.27 10.3141 24.1913 11.972 26.53L11.3534 29.0053C11.3054 29.1967 11.3454 29.3986 11.4614 29.5587L11.7574 29.9654C9.04006 30.4267 5.98077 31.5954 1.98147 33.7C0.759322 34.3427 0 35.6006 0 36.9827V39.8333C0 40.2013 0.298646 40.4999 0.666631 40.4999H16.6666H16.6673H16.9166C16.9172 40.4999 16.9172 40.4993 16.918 40.4993L23.0539 40.494C23.0646 40.4946 23.0732 40.5 23.084 40.5H39.3333C39.702 40.5 39.9999 40.2014 39.9999 39.8334V36.9827C40 35.6006 39.2413 34.3427 38.0193 33.6999ZM10.6667 18.5V15.8333H29.3333V18.5C29.3333 21.502 28.2713 24.144 26.7006 26.1253C26.6772 26.1479 26.6466 26.162 26.6266 26.188C26.3972 26.4813 26.1599 26.7579 25.9159 27.018C25.9146 27.0193 25.9132 27.0207 25.9119 27.0219C25.7499 27.1933 25.5813 27.3459 25.4133 27.5026C23.7839 28.972 21.8486 29.8333 20 29.8333C18.1519 29.8333 16.2166 28.972 14.5866 27.5026C14.4193 27.346 14.2506 27.1933 14.0886 27.0219C14.0873 27.0206 14.0859 27.0192 14.0846 27.018C13.8406 26.758 13.6027 26.4813 13.3733 26.188C13.3533 26.162 13.3232 26.1479 13.3 26.1253C11.7293 24.144 10.6667 21.502 10.6667 18.5ZM12.7226 29.026L13.022 27.83C13.0233 27.8319 13.0253 27.8333 13.0267 27.8346C14.638 29.5873 16.688 30.822 18.9986 31.1027C19 31.1027 19.0013 31.1033 19.0026 31.1033L17.1932 35.1733L12.7226 29.026ZM17.4806 39.1659L17.88 37.1666H22.1207L22.29 38.0113L22.52 39.1613L17.4806 39.1659ZM22.8073 35.1733L20.998 31.1033C20.9993 31.1033 21.0007 31.1027 21.0019 31.1027C23.3126 30.822 25.3626 29.5874 26.9739 27.8346C26.9752 27.8333 26.9772 27.8319 26.9786 27.83L27.2779 29.026L22.8073 35.1733Z" fill="#2E8B57"/>
<path d="M26.3394 3.94824L25.5054 8.32554L30.0673 7.44819C29.12 6.04091 27.8534 4.84823 26.3394 3.94824Z" fill="#2E8B57"/>
<path d="M13.6611 3.94824C12.1471 4.84823 10.8804 6.04091 9.93311 7.44827L14.4951 8.32562L13.6611 3.94824Z" fill="#2E8B57"/>
</svg>
