<svg width="40" height="42" viewBox="0 0 40 42" fill="none" xmlns="http://www.w3.org/2000/svg">
<path d="M36.7029 31.6002L36.5547 31.558C34.3897 30.9752 33.6576 30.4179 32.6941 30.0512C29.2754 28.749 28.386 27.8097 28.1585 27.3662C28.1496 27.3508 28.1431 27.333 28.1355 27.3176L28.1074 23.3458L20 23.2539L11.8926 23.3459L11.8645 27.3178C11.8568 27.3331 11.8504 27.351 11.8415 27.3663C11.614 27.8098 10.7258 28.7491 7.30602 30.0513C6.34251 30.4181 5.61022 30.9754 3.44534 31.5581L3.29713 31.6003C1.32651 32.2521 0 34.0796 0 36.1421V41.8763H40V36.1421C39.9999 34.0795 38.6735 32.2519 36.7029 31.6002Z" fill="#2E8B57"/>
<path d="M23.4899 26.1724H16.5098V41.8757H23.4899V26.1724Z" fill="#F6BB42"/>
<path d="M11.877 23.436L11.8643 27.3171L15.6381 32.2245L19.9997 29.6967L11.877 23.436Z" fill="#FFCE54" fill-opacity="0.9"/>
<path d="M28.1355 23.2539L20 29.6973L24.3617 32.2251L28.1355 27.3177V23.2539Z" fill="#FFCE54" fill-opacity="0.9"/>
<path d="M20.6169 37.7686C20.9568 38.1098 20.9568 38.6632 20.6169 39.0031C20.2757 39.3431 19.7236 39.3431 19.3823 39.0031C19.0425 38.6632 19.0425 38.1098 19.3823 37.7686C19.7236 37.4287 20.2757 37.4287 20.6169 37.7686Z" fill="white"/>
<path d="M20.6169 34.2803C20.9568 34.6202 20.9568 35.1722 20.6169 35.5147C20.2757 35.8547 19.7236 35.8547 19.3823 35.5147C19.0425 35.1722 19.0425 34.6202 19.3823 34.2803C19.7236 33.9404 20.2757 33.9404 20.6169 34.2803Z" fill="white"/>
<path d="M20.8726 0.872152C20.8726 1.35399 20.4816 1.74504 19.9998 1.74504C19.5179 1.74504 19.127 1.35399 19.127 0.872152C19.127 0.390313 19.5179 0 19.9998 0C20.4816 0 20.8726 0.390313 20.8726 0.872152Z" fill="#434A54"/>
<path d="M31.2498 15.6622C31.2498 22.9727 24.2823 29.6998 19.9999 29.6998C15.7187 29.6998 8.75 22.9727 8.75 15.6622C8.75 8.35227 13.7864 3.5293 19.9999 3.5293C26.2133 3.5293 31.2498 8.35227 31.2498 15.6622Z" fill="#EAC6BB"/>
<path d="M20.0002 0.87207C13.6972 0.87207 8.3912 6.07014 8.3912 12.4817L8.38989 15.7034H31.6091L31.6104 12.4817C31.6104 6.07014 26.3031 0.87207 20.0002 0.87207Z" fill="#2E8B57"/>
<path d="M20 11.3413C30.2402 11.3413 32.6135 15.8052 32.6135 15.8052C32.8384 16.2289 32.6301 16.5758 32.1496 16.5758H7.85045C7.36992 16.5758 7.16159 16.2288 7.38652 15.8052C7.38652 15.8052 9.75973 11.3413 20 11.3413Z" fill="#FFCE54" fill-opacity="0.9"/>
<path d="M32.4959 15.6206C32.4064 15.673 32.2901 15.703 32.1496 15.703H7.85045C7.70985 15.703 7.59354 15.673 7.50414 15.6206C7.42235 15.7381 7.38652 15.8052 7.38652 15.8052C7.16159 16.2289 7.36992 16.5758 7.85045 16.5758H32.1496C32.6301 16.5758 32.8384 16.2288 32.6135 15.8052C32.6135 15.8052 32.5777 15.7381 32.4959 15.6206Z" fill="#F6BB42"/>
<path d="M19.9988 10.4689C19.8327 10.4689 19.6627 10.421 19.5131 10.3207C19.1131 10.0524 19.0071 9.50984 19.2754 9.10987L20.1074 7.87154H18.2556C17.9335 7.87154 17.6371 7.69388 17.4851 7.40957C17.3342 7.12518 17.3508 6.78018 17.531 6.51239L19.2753 3.91499C19.545 3.51495 20.0869 3.40829 20.4868 3.67731C20.8869 3.94567 20.993 4.4882 20.7245 4.88824L19.8925 6.1265H21.7444C22.0677 6.1265 22.3629 6.30415 22.515 6.58846C22.6658 6.87285 22.6492 7.21785 22.469 7.48564L20.7246 10.083C20.556 10.3335 20.28 10.4689 19.9988 10.4689Z" fill="white"/>
</svg>
