<svg width="40" height="40" viewBox="0 0 40 40" fill="none" xmlns="http://www.w3.org/2000/svg">
<path fill-rule="evenodd" clip-rule="evenodd" d="M30.2433 8.01111L30.1433 7.93333C29.9511 6.47333 29.2522 4.95222 28.1611 3.67C26.3888 1.58667 23.5 0 19.6333 0C15.8222 0 13.1366 1.73778 11.5522 3.89222C10.8131 4.88888 10.285 6.02573 9.99996 7.23333C9.94808 7.45947 9.90655 7.68785 9.87551 7.91778L9.75551 8.01C8.50663 8.97778 7.58996 10.1511 7.80774 11.4967C8.01663 12.7967 9.19218 13.5878 10.2855 14.0711C10.5633 14.1944 10.8633 14.31 11.1822 14.4178C11.0215 15.6703 11.1296 16.9427 11.4992 18.1502C11.8688 19.3577 12.4914 20.4726 13.3256 21.4206C14.1598 22.3686 15.1864 23.128 16.3371 23.6482C17.4878 24.1684 18.7361 24.4375 19.9988 24.4375C21.2616 24.4375 22.5099 24.1684 23.6606 23.6482C24.8113 23.128 25.8379 22.3686 26.6721 21.4206C27.5063 20.4726 28.1289 19.3577 28.4985 18.1502C28.8681 16.9427 28.9762 15.6703 28.8155 14.4178C29.1344 14.31 29.4344 14.1956 29.7122 14.0711C30.8055 13.5878 31.98 12.7967 32.19 11.4967C32.4077 10.1511 31.4911 8.97778 30.2422 8.01L30.2433 8.01111ZM12.1611 9.63556C12.0166 9.22 11.9788 8.55222 12.1666 7.72667C12.3511 6.92111 12.7333 6.03778 13.3333 5.22V8.33333C13.3333 8.62802 13.4504 8.91063 13.6587 9.11901C13.8671 9.32738 14.1497 9.44444 14.4444 9.44444C14.7391 9.44444 15.0217 9.32738 15.2301 9.11901C15.4385 8.91063 15.5555 8.62802 15.5555 8.33333V3.23333C16.47 2.71333 17.5755 2.35 18.8888 2.25V6.11111C18.8888 6.4058 19.0059 6.68841 19.2143 6.89679C19.4227 7.10516 19.7053 7.22222 20 7.22222C20.2946 7.22222 20.5773 7.10516 20.7856 6.89679C20.994 6.68841 21.1111 6.4058 21.1111 6.11111V2.31889C22.2844 2.46678 23.417 2.84434 24.4444 3.43V8.33333C24.4444 8.62802 24.5615 8.91063 24.7698 9.11901C24.9782 9.32738 25.2608 9.44444 25.5555 9.44444C25.8502 9.44444 26.1328 9.32738 26.3412 9.11901C26.5496 8.91063 26.6666 8.62802 26.6666 8.33333V5.35333C27.8944 6.92667 28.1822 8.62444 27.8366 9.64333C27.751 9.89551 27.7588 10.17 27.8587 10.4169C27.9585 10.6638 28.1436 10.8667 28.3804 10.9885C28.6172 11.1103 28.8899 11.1431 29.1488 11.0807C29.4078 11.0184 29.6357 10.8651 29.7911 10.6489C30.01 10.9544 30.0022 11.1167 29.9977 11.1422C29.9833 11.2311 29.8133 11.5978 28.8144 12.04C28.3811 12.2311 27.8655 12.4033 27.2866 12.5556L27.26 12.5622C26.6322 12.7244 25.9333 12.8622 25.1855 12.9756C23.7987 13.1755 22.4009 13.2906 21 13.32C20.0369 13.3441 19.0734 13.3337 18.1111 13.2889C17.0042 13.2393 15.9006 13.134 14.8044 12.9733C14.1096 12.8724 13.4205 12.7352 12.74 12.5622L12.7133 12.5556C12.1912 12.4243 11.6804 12.2519 11.1855 12.04C10.1866 11.5978 10.0166 11.2311 10.0022 11.1422C9.99774 11.1167 9.98996 10.9544 10.2088 10.6489C10.3645 10.8661 10.5933 11.02 10.8532 11.0822C11.1131 11.1445 11.3867 11.111 11.6239 10.9879C11.8611 10.8648 12.046 10.6603 12.1447 10.4119C12.2433 10.1635 12.2491 9.88788 12.1611 9.63556ZM13.3577 14.9789C13.7266 15.0511 14.1088 15.1167 14.5 15.1756C15.6866 15.3533 16.9644 15.4667 18.2644 15.52C19.4232 15.5676 20.5834 15.5676 21.7422 15.52C23.0355 15.4667 24.3088 15.3533 25.49 15.1756C25.8756 15.1194 26.2598 15.0538 26.6422 14.9789C26.7212 15.8991 26.6082 16.8256 26.3102 17.6998C26.0123 18.574 25.536 19.3767 24.9115 20.0571C24.287 20.7376 23.528 21.2808 22.6825 21.6524C21.837 22.024 20.9235 22.2159 20 22.2159C19.0764 22.2159 18.1629 22.024 17.3174 21.6524C16.4719 21.2808 15.7129 20.7376 15.0884 20.0571C14.4639 19.3767 13.9876 18.574 13.6897 17.6998C13.3918 16.8256 13.2787 15.8991 13.3577 14.9789Z" fill="#2E8B57"/>
<path fill-rule="evenodd" clip-rule="evenodd" d="M25.5556 24.9893C26.2867 25.117 27.0311 25.2659 27.7778 25.4359C33.8256 26.817 40 29.5781 40 33.3337V40.0004H0V33.3337C0 29.5781 6.17445 26.817 12.2222 25.4359C12.959 25.268 13.7 25.1191 14.4444 24.9893V30.0004H25.5556V24.9893ZM10 28.3226C10.7267 28.1004 11.4722 27.8993 12.2222 27.7181V32.2226H27.7778V27.7193C28.9033 27.9886 30.0157 28.3104 31.1111 28.6837V37.7781H33.3333V29.5526C33.6556 29.6959 33.9667 29.8437 34.2644 29.9959C35.5278 30.6381 36.4644 31.3004 37.0578 31.9337C37.6411 32.5559 37.7778 33.0148 37.7778 33.3337V37.7781H2.22222V33.3337C2.22222 33.0148 2.35889 32.5559 2.94222 31.9337C3.53556 31.3004 4.47222 30.6381 5.73556 29.9959C6.36778 29.6737 7.05333 29.3715 7.77778 29.0904V37.7781H10V28.3237V28.3226Z" fill="#2E8B57"/>
</svg>
