<svg width="40" height="41" viewBox="0 0 40 41" fill="none" xmlns="http://www.w3.org/2000/svg">
<path d="M10.3545 8.51667C11.1134 6.12556 13.0323 4.14778 15.5556 3.06444V6.05556C15.5556 6.35024 15.6727 6.63286 15.881 6.84123C16.0894 7.0496 16.372 7.16667 16.6667 7.16667C16.9614 7.16667 17.244 7.0496 17.4524 6.84123C17.6608 6.63286 17.7778 6.35024 17.7778 6.05556V1.61111C17.7778 1.31643 17.8949 1.03381 18.1033 0.825437C18.3116 0.617063 18.5943 0.5 18.8889 0.5H21.1112C21.4058 0.5 21.6885 0.617063 21.8968 0.825437C22.1052 1.03381 22.2223 1.31643 22.2223 1.61111V6.05556C22.2223 6.35024 22.3393 6.63286 22.5477 6.84123C22.7561 7.0496 23.0387 7.16667 23.3334 7.16667C23.6281 7.16667 23.9107 7.0496 24.1191 6.84123C24.3274 6.63286 24.4445 6.35024 24.4445 6.05556V3.06444C27.0045 4.16333 28.9412 6.18111 29.6778 8.61889C29.3923 8.85 28.9156 9.13 28.1723 9.40111C26.5145 10.0056 23.7334 10.5 19.4156 10.5C16.3056 10.5 13.8067 10.0156 12.12 9.4C11.3067 9.10333 10.7223 8.79 10.3545 8.51667Z" fill="#2E8B57"/>
<path fill-rule="evenodd" clip-rule="evenodd" d="M28.9333 11.4885C29.9167 11.1285 30.6922 10.6974 31.2433 10.2019C31.8733 10.8052 32.2222 11.4685 32.2222 12.1663C32.2222 13.4974 30.9511 14.7074 28.8778 15.603C28.938 16.8062 28.753 18.0091 28.334 19.1386C27.9151 20.2681 27.2709 21.3007 26.4406 22.1736C25.6103 23.0465 24.6112 23.7415 23.504 24.2164C22.3969 24.6913 21.2047 24.9362 20 24.9362C18.7953 24.9362 17.6031 24.6913 16.496 24.2164C15.3888 23.7415 14.3897 23.0465 13.5594 22.1736C12.7291 21.3007 12.0849 20.2681 11.666 19.1386C11.247 18.0091 11.062 16.8062 11.1222 15.603C9.04889 14.7074 7.77778 13.4974 7.77778 12.1663C7.77778 11.4441 8.15111 10.7585 8.82333 10.1396L8.94889 10.2396C9.55333 10.7074 10.38 11.1308 11.36 11.4874C13.3278 12.2063 16.0922 12.7219 19.4156 12.7219C23.8689 12.7219 26.9367 12.2163 28.9333 11.4885ZM13.34 16.3596C13.4167 18.0744 14.152 19.6935 15.3925 20.8799C16.6331 22.0662 18.2835 22.7282 20 22.7282C21.7165 22.7282 23.3669 22.0662 24.6075 20.8799C25.848 19.6935 26.5833 18.0744 26.66 16.3596C24.7444 16.8708 22.4556 17.1663 20 17.1663C17.5444 17.1663 15.2556 16.8696 13.34 16.3596ZM0 40.4996H23.3333V27.7219L21.1111 29.3885V33.7185C20.7469 33.8025 20.3737 33.8409 20 33.833C19.4722 33.833 19.1167 33.7774 18.8889 33.7185V29.6352L13.7256 25.6196C7.24444 26.8641 0 29.7641 0 33.833V40.4996ZM7.77778 38.2774H16.6667V32.9219L9.41667 34.1308L11.5011 28.3996C10.2383 28.7244 8.99513 29.1214 7.77778 29.5885V38.2774ZM2.22222 38.2774H5.55556V30.5874L5.47333 30.6308C4.29111 31.2574 3.42667 31.8963 2.88222 32.4974C2.34889 33.0885 2.22222 33.5252 2.22222 33.833V38.2774Z" fill="#2E8B57"/>
<path d="M29.5223 22.3331C30.1645 21.6775 31.0556 22.3386 30.8601 23.2353L30.8312 23.3664C30.7313 23.8234 30.7351 24.297 30.8423 24.7524C30.9495 25.2077 31.1574 25.6332 31.4508 25.9976C31.7441 26.362 32.1154 26.6561 32.5374 26.8581C32.9593 27.0601 33.4211 27.1649 33.8889 27.1649C34.3567 27.1649 34.8186 27.0601 35.2405 26.8581C35.6625 26.6561 36.0338 26.362 36.3271 25.9976C36.6205 25.6332 36.8284 25.2077 36.9356 24.7524C37.0428 24.297 37.0466 23.8234 36.9467 23.3664L36.9178 23.2353C36.7223 22.3386 37.6134 21.6786 38.2556 22.3342C39.3757 23.4752 40.0023 25.0109 40.0001 26.6098C40.0007 27.6461 39.7376 28.6656 39.2355 29.5722C38.7334 30.4788 38.0089 31.2427 37.1301 31.792C36.8201 31.9853 36.6667 32.3564 36.6667 32.722V38.2775C36.6667 38.8669 36.4326 39.4321 36.0159 39.8489C35.5991 40.2656 35.0339 40.4998 34.4445 40.4998H33.3334C32.744 40.4998 32.1788 40.2656 31.762 39.8489C31.3453 39.4321 31.1112 38.8669 31.1112 38.2775V32.722C31.1112 32.3564 30.9578 31.9853 30.6478 31.792C29.7689 31.2426 29.0442 30.4785 28.5421 29.5717C28.04 28.6649 27.777 27.6452 27.7778 26.6086C27.7778 24.9442 28.4434 23.4342 29.5223 22.3331Z" fill="#2E8B57"/>
</svg>
