<svg width="87" height="147" viewBox="0 0 87 147" fill="none" xmlns="http://www.w3.org/2000/svg">
<path d="M12.8187 146.428C10.741 146.432 8.69704 145.903 6.88199 144.892C5.06694 143.881 3.54148 142.421 2.45126 140.652C1.36105 138.884 0.742524 136.865 0.654767 134.789C0.567011 132.713 1.01294 130.65 1.94998 128.795L63 6.75309C63.7135 5.31846 64.7038 4.03914 65.9137 2.9887C67.1236 1.93825 68.5293 1.13742 70.0499 0.632344C71.5705 0.127267 73.176 -0.0721262 74.774 0.0456714C76.3719 0.163469 77.9308 0.596148 79.3609 1.31874C85.3734 4.32499 87.8594 11.6671 84.7953 17.6796L23.7453 139.722C21.6063 144 17.2703 146.428 12.8187 146.428Z" fill="#2F2F2F"/>
</svg>
