<svg width="430" height="481" viewBox="0 0 430 481" fill="none" xmlns="http://www.w3.org/2000/svg">
<path fill-rule="evenodd" clip-rule="evenodd" d="M48.8662 468.667H311.422V469.9H48.8662V468.667Z" fill="#3FB1B5"/>
<path fill-rule="evenodd" clip-rule="evenodd" d="M293.036 481H4.03613V480.046H293.036V481Z" fill="#66B0F0"/>
<path d="M291.76 4.9209V52.7702C291.76 62.1411 284.203 69.7535 274.901 69.7535H222.232C231.535 69.7535 239.092 62.1643 239.092 52.7702V4.9209H291.76Z" fill="white"/>
<path fill-rule="evenodd" clip-rule="evenodd" d="M238.518 4.34277H292.334V52.7706C292.334 62.4609 284.52 70.3323 274.901 70.3323H222.232V69.1754C231.218 69.1754 238.518 61.8446 238.518 52.7706V4.34277ZM228.469 69.1754H274.901C283.886 69.1754 291.186 61.822 291.186 52.7706V5.49967H239.666V52.7706C239.666 60.2659 235.014 66.6501 228.469 69.1754Z" fill="#66B0F0"/>
<path d="M267.435 0.293945H263.186V10.4978H267.435V0.293945Z" fill="#FFCF2D"/>
<path d="M276.441 23.1086C275.843 23.1086 275.246 22.8773 274.764 22.4376L272.995 20.8643C272.444 20.3784 271.709 20.3784 271.158 20.8643L269.481 22.3682C268.493 23.2475 267.115 23.2475 266.105 22.3682L264.566 21.0031C264.014 20.5172 263.279 20.5172 262.728 21.0031L261.304 22.2757C260.316 23.1549 258.938 23.1549 257.928 22.2757L256.756 21.2345C256.205 20.7486 255.47 20.7486 254.919 21.2345L253.655 22.3682C252.668 23.2475 251.289 23.2475 250.279 22.3682L249.107 21.327C248.556 20.8411 247.821 20.8411 247.27 21.327C247.04 21.5353 246.673 21.5121 246.466 21.2807C246.259 21.0494 246.282 20.6791 246.512 20.4709C247.5 19.5917 248.878 19.5917 249.888 20.4709L251.06 21.5121C251.611 21.998 252.346 21.998 252.897 21.5121L254.161 20.3784C255.148 19.4991 256.526 19.4991 257.537 20.3784L258.708 21.4196C259.26 21.9055 259.995 21.9055 260.546 21.4196L261.97 20.147C262.958 19.2677 264.336 19.2677 265.347 20.147L266.885 21.5121C267.437 21.998 268.172 21.998 268.723 21.5121L270.4 20.0081C271.387 19.1289 272.766 19.1289 273.776 20.0081L275.545 21.5815C276.096 22.0674 276.831 22.0674 277.382 21.5815L279.22 19.9387C280.208 19.0595 281.586 19.0595 282.596 19.9387C282.826 20.147 282.849 20.5172 282.642 20.7486C282.436 20.9799 282.068 21.0031 281.838 20.7948C281.287 20.3089 280.552 20.3089 280.001 20.7948L278.163 22.4376C277.612 22.8773 277.038 23.1086 276.441 23.1086Z" fill="#66B0F0"/>
<path d="M276.441 32.6174C275.843 32.6174 275.246 32.386 274.764 31.9464L272.995 30.373C272.444 29.8871 271.709 29.8871 271.158 30.373L269.481 31.877C268.493 32.7562 267.115 32.7562 266.105 31.877L264.566 30.5119C264.014 30.026 263.279 30.026 262.728 30.5119L261.304 31.7844C260.316 32.6637 258.938 32.6637 257.928 31.7844L256.756 30.7432C256.205 30.2573 255.47 30.2573 254.919 30.7432L253.655 31.877C252.668 32.7562 251.289 32.7562 250.279 31.877L249.107 30.8358C248.556 30.3499 247.821 30.3499 247.27 30.8358C247.04 31.044 246.673 31.0209 246.466 30.7895C246.259 30.5581 246.282 30.1879 246.512 29.9797C247.5 29.1004 248.878 29.1004 249.888 29.9797L251.06 31.0209C251.611 31.5068 252.346 31.5068 252.897 31.0209L254.161 29.8871C255.148 29.0079 256.526 29.0079 257.537 29.8871L258.708 30.9283C259.26 31.4142 259.995 31.4142 260.546 30.9283L261.97 29.6558C262.958 28.7765 264.336 28.7765 265.347 29.6558L266.885 31.0209C267.437 31.5068 268.172 31.5068 268.723 31.0209L270.4 29.5169C271.387 28.6377 272.766 28.6377 273.776 29.5169L275.545 31.0903C276.096 31.5762 276.831 31.5762 277.382 31.0903L279.22 29.4475C280.208 28.5683 281.586 28.5683 282.596 29.4475C282.826 29.6558 282.849 30.026 282.642 30.2573C282.436 30.4887 282.068 30.5119 281.838 30.3036C281.287 29.8177 280.552 29.8177 280.001 30.3036L278.163 31.9464C277.612 32.4091 277.038 32.6174 276.441 32.6174Z" fill="#66B0F0"/>
<path d="M276.441 42.1272C275.843 42.1272 275.246 41.8958 274.764 41.4562L272.995 39.8828C272.444 39.3969 271.709 39.3969 271.158 39.8828L269.481 41.3868C268.493 42.266 267.115 42.266 266.105 41.3868L264.566 40.0216C264.014 39.5357 263.279 39.5357 262.728 40.0216L261.304 41.2942C260.316 42.1734 258.938 42.1734 257.928 41.2942L256.756 40.253C256.205 39.7671 255.47 39.7671 254.919 40.253L253.655 41.3868C252.668 42.266 251.289 42.266 250.279 41.3868L249.107 40.3456C248.556 39.8597 247.821 39.8597 247.27 40.3456C247.04 40.5538 246.673 40.5307 246.466 40.2993C246.259 40.0679 246.282 39.6977 246.512 39.4895C247.5 38.6102 248.878 38.6102 249.888 39.4895L251.06 40.5307C251.611 41.0166 252.346 41.0166 252.897 40.5307L254.161 39.3969C255.148 38.5177 256.526 38.5177 257.537 39.3969L258.708 40.4381C259.26 40.924 259.995 40.924 260.546 40.4381L261.97 39.1655C262.958 38.2863 264.336 38.2863 265.347 39.1655L266.885 40.5307C267.437 41.0166 268.172 41.0166 268.723 40.5307L270.4 39.0267C271.387 38.1475 272.766 38.1475 273.776 39.0267L275.545 40.6001C276.096 41.086 276.831 41.086 277.382 40.6001L279.22 38.9573C280.208 38.078 281.586 38.078 282.596 38.9573C282.826 39.1655 282.849 39.5357 282.642 39.7671C282.436 39.9985 282.068 40.0216 281.838 39.8134C281.287 39.3275 280.552 39.3275 280.001 39.8134L278.163 41.4562C277.612 41.9189 277.038 42.1272 276.441 42.1272Z" fill="#66B0F0"/>
<path d="M276.441 51.6594C275.843 51.6594 275.246 51.428 274.764 50.9884L272.995 49.415C272.444 48.9291 271.709 48.9291 271.158 49.415L269.481 50.919C268.493 51.7982 267.115 51.7982 266.105 50.919L264.566 49.5539C264.014 49.068 263.279 49.068 262.728 49.5539L261.304 50.8264C260.316 51.7057 258.938 51.7057 257.928 50.8264L256.756 49.7852C256.205 49.2993 255.47 49.2993 254.919 49.7852L253.655 50.919C252.668 51.7982 251.289 51.7982 250.279 50.919L249.107 49.8778C248.556 49.3919 247.821 49.3919 247.27 49.8778C247.04 50.086 246.673 50.0629 246.466 49.8315C246.259 49.6001 246.282 49.2299 246.512 49.0217C247.5 48.1425 248.878 48.1425 249.888 49.0217L251.06 50.0629C251.611 50.5488 252.346 50.5488 252.897 50.0629L254.161 48.9291C255.148 48.0499 256.526 48.0499 257.537 48.9291L258.708 49.9703C259.26 50.4562 259.995 50.4562 260.546 49.9703L261.97 48.6978C262.958 47.8185 264.336 47.8185 265.347 48.6978L266.885 50.0629C267.437 50.5488 268.172 50.5488 268.723 50.0629L270.4 48.5589C271.387 47.6797 272.766 47.6797 273.776 48.5589L275.545 50.1323C276.096 50.6182 276.831 50.6182 277.382 50.1323L279.22 48.4895C280.208 47.6103 281.586 47.6103 282.596 48.4895C282.826 48.6978 282.849 49.068 282.642 49.2993C282.436 49.5307 282.068 49.5539 281.838 49.3456C281.287 48.8597 280.552 48.8597 280.001 49.3456L278.163 50.9884C277.612 51.428 277.038 51.6594 276.441 51.6594Z" fill="#66B0F0"/>
<path d="M345.988 4.91992H309.146V42.0333H345.988V4.91992Z" fill="#FFCF2D"/>
<path d="M317.242 3.33727L314.574 0.00488281L304.846 7.94256L307.514 11.2749L317.242 3.33727Z" fill="#FE5244"/>
<path d="M347.899 11.2562L350.57 7.92676L340.834 -2.54425e-05L338.163 3.32937L347.899 11.2562Z" fill="#FE5244"/>
<path d="M338.203 13.7139H315.854V15.1022H338.203V13.7139Z" fill="white"/>
<path d="M338.203 19.7061H315.854V21.0943H338.203V19.7061Z" fill="white"/>
<path d="M338.203 25.7217H315.854V27.1099H338.203V25.7217Z" fill="white"/>
<path d="M338.203 31.7148H315.854V33.1031H338.203V31.7148Z" fill="white"/>
<path d="M374.106 404.178C373.573 404.019 373.277 403.939 373.277 403.939L366.82 425.243L342.511 418.818C342.314 418.639 342.215 418.54 342.215 418.54C342.215 418.54 243.777 340.822 238.603 303.524C233.449 266.227 274.681 230.839 274.681 230.839C274.681 230.839 362.614 398.27 373.494 403.74C373.711 403.86 373.929 403.999 374.106 404.178Z" fill="#E57281"/>
<path d="M295.494 270.006C292.414 286.616 281.593 320.253 270.396 352.797C253.809 334.794 240.42 316.633 238.604 303.504C235.326 279.872 250.708 256.977 262.399 243.41C266.684 239.949 271.304 236.766 276.3 233.922C279.361 239.71 286.45 253.118 295.494 270.006Z" fill="#9A3B82"/>
<path d="M429.358 418.52L393.201 441.893L382.716 440.302L373.059 446.468L376.179 452.913L360.283 463.197C339.213 443.882 342.195 418.759 342.195 418.759L366.8 425.263L373.257 403.959C373.257 403.959 395.354 410.464 411.665 409.907C428.015 409.35 429.358 418.52 429.358 418.52Z" fill="white"/>
<path fill-rule="evenodd" clip-rule="evenodd" d="M372.861 403.222L373.423 403.387L373.256 403.96C373.423 403.387 373.422 403.387 373.423 403.387L373.438 403.391L373.484 403.405C373.526 403.417 373.588 403.435 373.671 403.459C373.835 403.506 374.079 403.575 374.395 403.663C375.028 403.839 375.952 404.09 377.111 404.389C379.43 404.989 382.692 405.782 386.462 406.558C394.012 408.112 403.56 409.587 411.644 409.311C419.933 409.029 424.523 411.212 427.045 413.568C428.3 414.741 429.023 415.938 429.432 416.851C429.636 417.307 429.763 417.693 429.839 417.969C429.877 418.107 429.902 418.217 429.918 418.297C429.926 418.336 429.932 418.368 429.936 418.391C429.938 418.402 429.94 418.412 429.941 418.419L429.943 418.428L429.943 418.431L429.943 418.433C429.943 418.433 429.943 418.434 429.357 418.521L429.943 418.434L429.999 418.815L393.333 442.517L382.846 440.926L373.824 446.687L376.942 453.129L360.22 463.948L359.884 463.64C349.238 453.881 344.667 442.65 342.759 433.863C341.805 429.471 341.516 425.687 341.466 422.998C341.44 421.653 341.475 420.582 341.516 419.843C341.537 419.474 341.559 419.188 341.576 418.993C341.585 418.896 341.592 418.821 341.597 418.77C341.6 418.744 341.602 418.725 341.604 418.711L341.606 418.695L341.606 418.691L341.606 418.689C341.606 418.689 341.606 418.689 342.195 418.759L341.606 418.689L341.687 418.008L366.399 424.541L372.861 403.222ZM342.724 419.516C342.715 419.633 342.707 419.765 342.699 419.91C342.659 420.621 342.626 421.663 342.65 422.976C342.699 425.601 342.982 429.305 343.916 433.608C345.764 442.119 350.161 452.964 360.347 462.448L375.416 452.699L372.294 446.251L382.585 439.679L393.069 441.27L428.685 418.246C428.622 418.025 428.518 417.713 428.352 417.342C427.999 416.553 427.363 415.493 426.239 414.443C424.002 412.353 419.746 410.229 411.684 410.504C403.458 410.785 393.801 409.286 386.225 407.727C382.432 406.947 379.15 406.149 376.817 405.546C375.65 405.244 374.719 404.991 374.08 404.814C373.919 404.769 373.777 404.729 373.653 404.694L367.2 425.987L342.724 419.516Z" fill="#FE5244"/>
<path fill-rule="evenodd" clip-rule="evenodd" d="M388.777 406.022C388.728 405.579 388.654 404.954 388.554 404.21C388.35 402.699 388.039 400.689 387.606 398.706C387.175 396.735 386.615 394.747 385.904 393.304C385.549 392.586 385.134 391.953 384.638 391.531C384.123 391.093 383.488 390.861 382.781 391.049L382.779 391.05L382.778 391.05C382.071 391.242 381.614 391.779 381.342 392.426C381.075 393.063 380.961 393.858 380.95 394.713C380.928 396.429 381.319 398.556 381.958 400.568C382.597 402.579 383.504 404.536 384.553 405.893C385.077 406.57 385.663 407.133 386.303 407.462C386.961 407.801 387.686 407.894 388.41 407.595C389.632 407.09 390.783 405.933 391.803 404.588C392.835 403.225 393.79 401.592 394.602 400.032C395.414 398.468 396.09 396.963 396.563 395.85C396.8 395.293 396.986 394.833 397.113 394.512C397.176 394.351 397.225 394.225 397.258 394.139C397.275 394.096 397.288 394.063 397.296 394.04L397.306 394.014L397.309 394.005L397.309 394.005C397.309 394.005 397.309 394.005 396.755 393.795C396.2 393.584 396.2 393.584 396.2 393.584L396.2 393.585L396.2 393.586L396.198 393.592L396.189 393.615C396.181 393.636 396.169 393.667 396.153 393.709C396.122 393.791 396.074 393.914 396.012 394.07C395.888 394.384 395.706 394.834 395.474 395.381C395.009 396.475 394.346 397.95 393.552 399.478C392.756 401.008 391.837 402.576 390.861 403.864C390.159 404.79 389.456 405.533 388.777 406.022ZM387.645 406.574C387.393 406.603 387.129 406.547 386.842 406.399C386.415 406.18 385.955 405.764 385.488 405.159C384.555 403.953 383.702 402.14 383.087 400.204C382.472 398.271 382.115 396.276 382.135 394.728C382.145 393.951 382.25 393.328 382.433 392.891C382.613 392.463 382.839 392.27 383.085 392.203C383.33 392.138 383.576 392.19 383.873 392.443C384.19 392.712 384.518 393.178 384.843 393.835C385.488 395.143 386.023 397.014 386.449 398.963C386.872 400.902 387.179 402.877 387.38 404.37C387.48 405.116 387.554 405.74 387.602 406.177C387.62 406.334 387.634 406.468 387.645 406.574Z" fill="#FE5244"/>
<path fill-rule="evenodd" clip-rule="evenodd" d="M428.17 415.843L393.76 437.485L382.339 435.634L370.354 442.85L345.956 442.47L345.974 441.276L370.035 441.652L382.102 434.387L393.509 436.236L427.542 414.831L428.17 415.843Z" fill="#FE5244"/>
<path fill-rule="evenodd" clip-rule="evenodd" d="M380.418 416.327L382.669 405.765L383.828 406.015L381.576 416.578L380.418 416.327Z" fill="#FE5244"/>
<path fill-rule="evenodd" clip-rule="evenodd" d="M385.315 417.521L387.567 406.958L388.725 407.209L386.474 417.771L385.315 417.521Z" fill="#FE5244"/>
<path fill-rule="evenodd" clip-rule="evenodd" d="M390.431 418.376L392.682 407.813L393.84 408.064L391.589 418.627L390.431 418.376Z" fill="#FE5244"/>
<path d="M266.328 222.704C266.328 222.704 280.803 229.507 280.803 254.452C280.803 278.561 225.551 426.199 225.551 426.199L208.549 440.721L191.29 421.684C199.722 413.608 175.512 267.6 266.328 222.704Z" fill="#E57281"/>
<path d="M264.789 469.007L221.82 469.047L213.842 462.005L202.409 461.945L201.579 469.067L184.735 469.087C175.573 440.363 191.37 421.664 191.37 421.664L208.51 440.681L225.631 426.18C225.631 426.18 240.481 443.724 254.501 452.119C268.561 460.533 264.789 469.007 264.789 469.007Z" fill="white"/>
<path fill-rule="evenodd" clip-rule="evenodd" d="M191.355 420.761L208.565 439.855L225.7 425.342L226.081 425.793L225.631 426.18C226.081 425.793 226.081 425.793 226.081 425.793L226.092 425.805L226.123 425.842C226.151 425.875 226.193 425.924 226.249 425.988C226.36 426.118 226.525 426.309 226.741 426.556C227.172 427.05 227.804 427.765 228.607 428.65C230.213 430.42 232.5 432.868 235.224 435.577C240.679 441.003 247.856 447.447 254.803 451.606C261.931 455.872 264.627 460.209 265.491 463.569C265.92 465.241 265.888 466.645 265.745 467.638C265.673 468.134 265.573 468.528 265.49 468.802C265.448 468.939 265.41 469.047 265.381 469.122C265.374 469.142 265.367 469.159 265.361 469.174C265.356 469.189 265.351 469.201 265.346 469.211C265.342 469.222 265.338 469.231 265.335 469.238L265.332 469.246L265.33 469.25C265.329 469.251 265.329 469.252 264.789 469.007L265.329 469.252L265.172 469.604L221.597 469.644L213.618 462.601L202.935 462.545L202.106 469.663L184.303 469.684L184.171 469.269C179.545 454.767 181.217 442.778 184.056 434.411C185.474 430.231 187.183 426.956 188.539 424.723C189.218 423.607 189.808 422.75 190.232 422.171C190.443 421.881 190.613 421.66 190.731 421.51C190.79 421.436 190.835 421.379 190.867 421.34C190.883 421.32 190.895 421.305 190.904 421.295L190.914 421.283L190.917 421.279L190.918 421.278C190.918 421.278 190.919 421.278 191.37 421.664L190.919 421.278L191.355 420.761ZM191.401 422.587C191.336 422.674 191.264 422.77 191.186 422.877C190.781 423.433 190.209 424.261 189.55 425.346C188.231 427.517 186.563 430.713 185.177 434.797C182.434 442.881 180.795 454.455 185.168 468.49L201.052 468.471L201.882 461.346L214.066 461.41L222.042 468.45L264.369 468.411C264.435 468.19 264.514 467.87 264.572 467.466C264.696 466.607 264.728 465.366 264.344 463.868C263.578 460.887 261.13 456.781 254.198 452.632C247.125 448.397 239.866 441.871 234.392 436.426C231.651 433.7 229.349 431.237 227.733 429.455C226.924 428.564 226.287 427.843 225.851 427.344C225.743 427.221 225.648 427.111 225.565 427.015L208.455 441.508L191.401 422.587Z" fill="#FE5244"/>
<path fill-rule="evenodd" clip-rule="evenodd" d="M245.416 420.056C246.296 419.934 247.144 420.153 247.879 420.796C248.609 421.434 248.945 422.23 248.942 423.104C248.94 423.949 248.624 424.825 248.146 425.679C247.19 427.385 245.471 429.202 243.653 430.844C241.823 432.495 239.847 434.01 238.332 435.11C237.632 435.618 237.028 436.039 236.581 436.345C236.777 436.364 237.016 436.373 237.301 436.368C238.013 436.357 238.909 436.265 239.935 436.111C241.983 435.802 244.482 435.255 246.913 434.658C249.342 434.062 251.69 433.421 253.432 432.928C254.303 432.682 255.022 432.473 255.523 432.326C255.773 432.252 255.969 432.194 256.102 432.154C256.168 432.134 256.219 432.119 256.253 432.108L256.305 432.093C256.305 432.093 256.305 432.093 256.475 432.664C256.646 433.236 256.646 433.236 256.646 433.236L256.593 433.252C256.573 433.258 256.548 433.265 256.519 433.274C256.495 433.281 256.469 433.289 256.439 433.298C256.304 433.338 256.107 433.397 255.855 433.471C255.351 433.62 254.628 433.83 253.753 434.077C252.003 434.572 249.64 435.218 247.194 435.818C244.75 436.417 242.21 436.975 240.11 437.291C239.061 437.449 238.106 437.549 237.32 437.562C236.569 437.573 235.855 437.51 235.377 437.246C234.725 436.885 234.605 436.103 234.628 435.447C234.653 434.736 234.853 433.859 235.166 432.913C235.795 431.01 236.93 428.683 238.294 426.543C239.653 424.411 241.274 422.412 242.898 421.209C243.709 420.607 244.563 420.174 245.416 420.056ZM235.814 435.427C236.262 435.122 236.895 434.682 237.639 434.142C239.136 433.055 241.075 431.568 242.862 429.955C244.659 428.332 246.257 426.622 247.114 425.092C247.542 424.328 247.756 423.659 247.757 423.101C247.759 422.573 247.572 422.108 247.102 421.697C246.637 421.29 246.134 421.161 245.578 421.238C244.995 421.319 244.327 421.631 243.6 422.17C242.145 423.248 240.617 425.108 239.291 427.188C237.969 429.261 236.882 431.499 236.29 433.29C236.003 434.156 235.843 434.886 235.814 435.427Z" fill="#FE5244"/>
<path fill-rule="evenodd" clip-rule="evenodd" d="M182.147 444.189L182.78 443.18L202.796 455.898H216.841L225.708 463.397H265.124V464.591H225.276L216.41 457.092H202.454L182.147 444.189Z" fill="#FE5244"/>
<path fill-rule="evenodd" clip-rule="evenodd" d="M223.672 439.483L231.255 431.845L232.092 432.689L224.51 440.327L223.672 439.483Z" fill="#FE5244"/>
<path fill-rule="evenodd" clip-rule="evenodd" d="M227.146 443.163L234.729 435.524L235.567 436.368L227.984 444.007L227.146 443.163Z" fill="#FE5244"/>
<path fill-rule="evenodd" clip-rule="evenodd" d="M230.979 446.664L238.561 439.025L239.399 439.869L231.816 447.508L230.979 446.664Z" fill="#FE5244"/>
<path d="M266.328 222.703C232.185 239.572 214.295 270.762 204.836 303.524H101.224C74.7038 303.524 54.9371 278.878 60.5255 252.76L68.1281 217.193H248.279C254.953 217.193 261.154 219.222 266.328 222.703Z" fill="#FE5244"/>
<path d="M189.393 256.798L226.695 256.719L221.165 265.849L189.393 256.798Z" fill="#E57281"/>
<path fill-rule="evenodd" clip-rule="evenodd" d="M107.511 217.013C107.832 217.08 108.037 217.396 107.97 217.719L106.529 224.681C106.529 224.681 106.529 224.681 106.529 224.681C103.13 241.119 115.567 256.545 132.232 256.545H226.457C236.398 242.676 249.371 230.764 266.349 222.372C266.642 222.227 266.997 222.349 267.142 222.645C267.286 222.941 267.164 223.299 266.871 223.444C249.985 231.79 237.104 243.657 227.242 257.49L227.064 257.739H132.232C114.814 257.739 101.817 241.616 105.369 224.437L106.811 217.475C106.877 217.152 107.191 216.945 107.511 217.013Z" fill="white"/>
<path fill-rule="evenodd" clip-rule="evenodd" d="M188.825 256.614C188.915 256.297 189.243 256.114 189.558 256.205L221.674 265.489L221.282 266.154C214.381 277.857 209.305 290.639 205.544 303.671C205.452 303.988 205.123 304.17 204.809 304.078C204.495 303.986 204.314 303.655 204.406 303.338C208.117 290.478 213.109 277.837 219.873 266.21L189.231 257.352C188.916 257.261 188.735 256.931 188.825 256.614Z" fill="white"/>
<path d="M43.9186 121.653L62.8954 196.646H27.4891C6.87334 196.646 -6.39658 174.586 3.16093 156.186L30.3524 103.81C38.0537 88.9908 53.2786 79.7012 69.8858 79.7012H76.3035C54.5029 79.6813 38.5277 100.369 43.9186 121.653Z" fill="#3FB1B5"/>
<path d="M262.438 102.198C273.595 102.198 282.876 100.706 285.127 98.6176L250.511 174.207C244.251 187.893 230.646 196.645 215.697 196.645C211.313 196.645 207.009 195.89 202.941 194.437C198.873 192.985 195.042 190.857 191.626 188.072L169.805 170.328C169.805 170.328 167.633 183.198 152.132 186.481V217.154H68.1089L43.9189 121.633C38.528 100.348 54.5033 79.6406 76.3039 79.6406H135.13C140.323 79.6406 145.438 80.2971 150.374 81.5701C163.881 85.0314 176.006 93.028 184.576 104.486L213.328 142.917L239.157 97.444C239.157 97.4838 239.137 97.5434 239.137 97.5832C239.157 100.229 249.603 102.198 262.438 102.198Z" fill="#3FB1B5"/>
<path fill-rule="evenodd" clip-rule="evenodd" d="M43.5791 121.073C43.8966 120.994 44.2178 121.189 44.2965 121.509L62.8783 197.099C62.957 197.419 62.7633 197.742 62.4457 197.821C62.1281 197.901 61.8069 197.706 61.7283 197.386L43.1464 121.796C43.0678 121.476 43.2615 121.153 43.5791 121.073Z" fill="white"/>
<path fill-rule="evenodd" clip-rule="evenodd" d="M153.088 153.204C153.327 152.978 153.702 152.99 153.926 153.23L170.434 170.934C170.658 171.174 170.646 171.552 170.408 171.778C170.169 172.003 169.794 171.991 169.57 171.751L153.062 154.047C152.838 153.807 152.85 153.429 153.088 153.204Z" fill="white"/>
<path d="M285.641 97.5032L285.128 98.6172C282.877 100.726 273.596 102.198 262.439 102.198C249.603 102.198 239.157 100.228 239.157 97.6226C239.157 97.5828 239.157 97.5231 239.177 97.4833C239.532 94.9371 249.84 92.749 262.459 92.749C275.057 92.749 285.286 94.9371 285.641 97.5032C285.641 97.4833 285.641 97.4833 285.641 97.5032Z" fill="#FE5244"/>
<path d="M295.987 59.3108C295.987 60.4447 295.71 61.5586 295.197 62.5333C294.684 63.5081 293.933 64.3634 293.005 65.0198L292.551 65.3381L289.016 84.335C288.444 87.4182 286.627 90.1434 284.001 91.8343L279.163 94.9374L275.332 97.404L273.554 101.681C270.257 102.019 266.485 102.218 262.457 102.218C258.389 102.218 254.558 102.019 251.221 101.661V72.2009C251.221 70.9278 251.497 69.6746 252.03 68.5208L258.468 54.5566C258.468 54.5566 265.498 56.3071 262.259 65C259.317 72.8971 266.031 70.8681 269.803 69.4557C273.179 68.1827 287.93 60.6237 293.696 57.8587C294.763 57.3415 295.987 58.1372 295.987 59.3108Z" fill="#E57281"/>
<path fill-rule="evenodd" clip-rule="evenodd" d="M289.918 76.6258C290.186 76.6763 290.362 76.9361 290.312 77.206C289.714 80.4249 287.818 83.2485 285.077 85.013L276.408 90.5831C276.178 90.7307 275.873 90.6628 275.726 90.4312C275.579 90.1996 275.647 89.8922 275.877 89.7445L284.545 84.175C287.057 82.5578 288.794 79.9708 289.342 77.0231C289.392 76.7532 289.65 76.5752 289.918 76.6258Z" fill="#9A3B82"/>
<path fill-rule="evenodd" clip-rule="evenodd" d="M291.339 68.5691C291.607 68.6196 291.784 68.8794 291.734 69.1494C291.136 72.3682 289.239 75.1919 286.499 76.9564L277.83 82.5264C277.6 82.6741 277.294 82.6061 277.148 82.3745C277.001 82.143 277.069 81.8355 277.299 81.6878L285.967 76.1183C285.967 76.1183 285.967 76.1182 285.967 76.1181C285.967 76.1181 285.967 76.1181 285.967 76.1181C288.479 74.501 290.216 71.914 290.763 68.9665C290.813 68.6965 291.071 68.5186 291.339 68.5691Z" fill="#9A3B82"/>
<path fill-rule="evenodd" clip-rule="evenodd" d="M292.336 65.2905C292.482 65.5224 292.414 65.8297 292.184 65.9768L278.243 74.8885C278.012 75.0357 277.707 74.967 277.561 74.7351C277.415 74.5032 277.483 74.1959 277.714 74.0487L291.655 65.137C291.885 64.9899 292.19 65.0586 292.336 65.2905Z" fill="#9A3B82"/>
<path d="M279.914 94.4399L279.144 94.9372L275.313 97.4038L273.536 101.681C270.238 102.019 266.466 102.218 262.438 102.218C258.37 102.218 254.539 102.019 251.202 101.661V93.3856C254.539 92.9878 258.37 92.769 262.438 92.769C269.409 92.7491 275.649 93.4055 279.914 94.4399Z" fill="#9A3B82"/>
<path d="M148.539 81.1132C145.676 84.9922 135.013 94.1226 99.1129 94.1226C52.925 94.1226 82.486 79.7208 82.486 79.7208L102.075 46.7598L123.086 59.7492V70.1925C123.086 75.4639 127.331 79.7208 132.544 79.7208H133.907C138.804 79.7009 143.859 79.9197 148.539 81.1132Z" fill="#E57281"/>
<path d="M123.067 59.7287V62.3943L82.4668 79.7003L102.056 46.7393L123.067 59.7287Z" fill="#9A3B82"/>
<path d="M124.171 61.0209H128.633C132.741 61.0209 136.078 57.6591 136.078 53.5216V28.4775H109.439V46.1814C109.439 54.3769 116.035 61.0209 124.171 61.0209Z" fill="#E57281"/>
<path fill-rule="evenodd" clip-rule="evenodd" d="M131.923 49.8301L131.923 49.8297L131.922 49.829L131.922 49.8283C131.922 49.828 131.922 49.8281 131.922 49.8284C131.922 49.8284 131.922 49.8284 131.922 49.8284M131.922 49.8284C131.922 49.8285 131.922 49.8286 131.922 49.8288C131.923 49.83 131.925 49.8331 131.928 49.8378C131.934 49.8471 131.944 49.8631 131.958 49.8848C131.988 49.9282 132.035 49.9941 132.101 50.0751C132.234 50.2373 132.44 50.4581 132.727 50.6799C133.297 51.12 134.196 51.5719 135.505 51.5719C135.777 51.5719 135.998 51.7946 135.998 52.0692C135.998 52.3439 135.777 52.5665 135.505 52.5665C133.95 52.5665 132.845 52.0238 132.126 51.4694C131.77 51.1939 131.51 50.9173 131.338 50.7065C131.252 50.601 131.188 50.5115 131.143 50.4461C131.121 50.4134 131.104 50.3867 131.092 50.3669C131.086 50.357 131.081 50.3489 131.077 50.3426L131.072 50.3346L131.07 50.3317L131.07 50.3305L131.069 50.33C131.069 50.3297 131.069 50.3295 131.496 50.08" fill="#73325A"/>
<path d="M132.918 44.0534C133.441 44.0534 133.866 43.2251 133.866 42.2034C133.866 41.1818 133.441 40.3535 132.918 40.3535C132.394 40.3535 131.97 41.1818 131.97 42.2034C131.97 43.2251 132.394 44.0534 132.918 44.0534Z" fill="#73325A"/>
<path d="M114.515 31.0839C114.515 31.0839 136.493 44.4513 143.642 32.8145C149.921 22.6099 122.098 17.3584 112.382 17.3186C101.818 17.2788 87.8172 21.9932 88.0541 37.6482C88.2516 50.5383 88.7847 69.3959 81.2019 66.1137C54.2277 54.457 30.2549 66.6309 30.176 89.825C30.097 113.019 56.8145 115.187 57.4859 109.2C58.177 103.232 40.8985 104.605 43.2287 120.101C45.539 135.597 55.8469 154.971 79.3852 154.971C107.821 154.991 125.929 117.276 108.334 113.437C94.847 110.493 122.078 136.71 130.155 109.458C138.843 80.1177 107.446 70.5099 106.675 52.7861C105.905 35.0623 114.515 31.0839 114.515 31.0839Z" fill="#FFCF2D"/>
<path fill-rule="evenodd" clip-rule="evenodd" d="M95.8995 21.1809C100.797 17.981 107.042 16.8014 112.385 16.8215C117.295 16.8416 126.734 18.1732 134.173 20.7854C137.883 22.0883 141.166 23.7331 143.126 25.7458C144.112 26.7586 144.788 27.8902 144.988 29.1417C145.189 30.4012 144.897 31.719 144.062 33.0764C142.179 36.141 139.315 37.5497 136.136 37.9471C132.975 38.3423 129.483 37.7428 126.259 36.7904C123.029 35.8362 120.031 34.5163 117.844 33.4376C116.75 32.8977 115.856 32.4171 115.235 32.0709C114.924 31.8978 114.682 31.7582 114.516 31.6616C114.512 31.6591 114.508 31.6567 114.504 31.6544C114.473 31.6722 114.44 31.6922 114.404 31.7145C114.187 31.8471 113.872 32.0589 113.493 32.3688C112.735 32.9883 111.719 34.0009 110.722 35.5584C108.73 38.6685 106.788 43.9885 107.169 52.7646C107.355 57.045 109.391 60.8695 112.284 64.691C113.729 66.6 115.378 68.4952 117.102 70.4389C117.396 70.7698 117.692 71.1021 117.989 71.4361C119.434 73.0598 120.914 74.7227 122.342 76.4476C125.786 80.6082 128.967 85.1707 130.729 90.5624C132.495 95.9657 132.828 102.172 130.628 109.601C128.581 116.507 125.287 120.129 121.627 121.624C119.693 122.414 117.691 122.595 115.769 122.379C115.852 126.426 114.315 131.242 111.545 135.907C105.601 145.917 93.8242 155.479 79.3854 155.469C67.4635 155.469 58.8687 150.555 52.9732 143.672C47.0898 136.803 43.9063 127.991 42.741 120.175C42.1752 116.412 42.7339 113.421 43.9413 111.138C43.7503 111.068 43.5592 110.994 43.3684 110.918C36.4622 108.164 29.6425 101.662 29.6828 89.8235C29.723 78.0323 35.848 69.0179 45.3919 64.4513C54.9206 59.8921 67.8083 59.7847 81.3971 65.6569L81.3973 65.657C82.2664 66.0332 82.963 66.0696 83.533 65.8878C84.1069 65.7047 84.6257 65.2772 85.0911 64.5848C86.0356 63.1793 86.6633 60.8273 87.0569 57.8795C87.794 52.359 87.6781 45.0495 87.5793 38.8233C87.5731 38.4297 87.5669 38.0404 87.561 37.6561C87.4398 29.6475 90.9742 24.3991 95.8995 21.1809ZM44.8885 111.465C43.744 113.549 43.1662 116.362 43.7173 120.026L43.7174 120.027C44.8624 127.707 47.988 136.33 53.7207 143.022C59.4413 149.701 67.7695 154.474 79.3857 154.474H79.3861C93.3828 154.484 104.878 145.198 110.698 135.396C113.452 130.757 114.902 126.058 114.777 122.232C113.433 121.984 112.141 121.554 110.956 121.017C109.382 120.303 107.979 119.394 106.865 118.451C105.758 117.514 104.908 116.519 104.475 115.624C104.258 115.176 104.128 114.716 104.155 114.28C104.184 113.822 104.389 113.417 104.782 113.134C105.154 112.866 105.657 112.736 106.247 112.71C106.843 112.684 107.571 112.762 108.439 112.951C110.733 113.452 112.478 114.514 113.691 116.01C114.874 117.471 115.524 119.312 115.713 121.371C117.548 121.601 119.444 121.442 121.256 120.702C124.552 119.356 127.691 116.036 129.682 109.316C131.826 102.075 131.492 96.0775 129.791 90.8734C128.086 85.6577 124.998 81.2091 121.583 77.0847C120.168 75.3745 118.702 73.7272 117.257 72.1036C116.959 71.7687 116.662 71.4348 116.366 71.1016C114.641 69.157 112.969 67.2367 111.499 65.2941C108.56 61.4124 106.382 57.3895 106.183 52.8081C105.794 43.8603 107.772 38.3292 109.892 35.0192C110.951 33.3666 112.039 32.2769 112.871 31.5965C113.287 31.2565 113.639 31.0191 113.89 30.8649C114.016 30.7877 114.117 30.7314 114.188 30.6934C114.224 30.6744 114.252 30.66 114.273 30.6499C114.283 30.6449 114.291 30.6409 114.297 30.6379L114.305 30.6342L114.309 30.6325C114.309 30.6323 114.31 30.6321 114.515 31.0841L114.31 30.6321L114.547 30.5224L114.771 30.6584L114.764 30.6695C114.771 30.6584 114.771 30.6584 114.771 30.6584L114.771 30.6587L114.774 30.6603L114.785 30.667C114.795 30.673 114.81 30.6821 114.83 30.6942C114.871 30.7184 114.932 30.7545 115.012 30.8012C115.172 30.8947 115.408 31.031 115.713 31.2006C116.322 31.54 117.201 32.0128 118.278 32.5443C120.436 33.6083 123.379 34.903 126.537 35.836C129.702 36.7709 133.045 37.3314 136.015 36.9601C138.967 36.591 141.531 35.3068 143.222 32.553L143.223 32.5527C143.957 31.3591 144.17 30.2806 144.013 29.2996C143.855 28.3106 143.312 27.3575 142.421 26.4422C140.626 24.5989 137.523 23.0151 133.848 21.7246C126.516 19.1499 117.186 17.8358 112.381 17.8161M114.703 121.205C114.5 119.408 113.913 117.857 112.926 116.639C111.873 115.339 110.335 114.382 108.23 113.923C107.412 113.745 106.773 113.682 106.29 113.703C105.801 113.725 105.513 113.83 105.356 113.943C105.218 114.042 105.152 114.166 105.141 114.344C105.128 114.544 105.187 114.826 105.362 115.188C105.712 115.91 106.449 116.8 107.5 117.689C108.544 118.573 109.87 119.434 111.361 120.11C112.413 120.587 113.54 120.969 114.703 121.205ZM44.8885 111.465C47.8179 112.407 50.686 112.699 52.9767 112.455C54.3175 112.312 55.4909 111.983 56.3663 111.467C57.2443 110.95 57.8695 110.211 57.9769 109.257C58.0779 108.383 57.8482 107.618 57.3614 107.008C56.8823 106.408 56.1788 105.987 55.37 105.732C53.7568 105.224 51.6185 105.339 49.5653 106.138C47.6555 106.881 45.7877 108.228 44.4543 110.267C44.2136 110.181 43.9727 110.089 43.7317 109.993C37.1311 107.361 30.6315 101.183 30.6701 89.8269C30.709 78.4241 36.6097 69.7545 45.8155 65.3497C55.0365 60.9377 67.6221 60.7865 81.0075 66.5709C82.0342 67.0152 82.9796 67.1075 83.8311 66.836C84.6787 66.5656 85.3608 65.9577 85.9087 65.1423C86.9907 63.5323 87.6392 60.9797 88.0354 58.0121C88.7829 52.4139 88.6656 45.0336 88.567 38.8316C88.5606 38.4295 88.5542 38.0322 88.5482 37.6409C88.4325 29.9944 91.7799 25.0582 96.4368 22.0153C101.122 18.9542 107.159 17.7965 112.381 17.8161M45.4281 110.593C46.6248 108.868 48.2519 107.715 49.9211 107.066C51.8099 106.33 53.7159 106.253 55.0752 106.681C55.7527 106.895 56.2675 107.225 56.5919 107.631C56.9084 108.028 57.0676 108.525 56.9961 109.142L56.9959 109.144C56.9351 109.686 56.5786 110.19 55.8676 110.609C55.1537 111.03 54.1302 111.332 52.8731 111.466C50.7927 111.687 48.1556 111.437 45.4281 110.593Z" fill="white"/>
<path fill-rule="evenodd" clip-rule="evenodd" d="M128.694 42.3234H112.976V41.1299H128.694V42.3234Z" fill="#3FB1B5"/>
<path fill-rule="evenodd" clip-rule="evenodd" d="M133.533 37.1515C131.524 37.1515 129.662 39.32 129.662 42.3235C129.662 45.3269 131.524 47.4954 133.533 47.4954C135.541 47.4954 137.403 45.3269 137.403 42.3235C137.403 39.32 135.541 37.1515 133.533 37.1515ZM128.478 42.3235C128.478 38.955 130.612 35.958 133.533 35.958C136.454 35.958 138.588 38.955 138.588 42.3235C138.588 45.6919 136.454 48.6889 133.533 48.6889C130.612 48.6889 128.478 45.6919 128.478 42.3235Z" fill="#3FB1B5"/>
<path fill-rule="evenodd" clip-rule="evenodd" d="M109.164 13.9172C106.985 13.9172 105.235 15.6972 105.235 17.8757V34.6247H104.05V17.8757C104.05 15.0414 106.328 12.7236 109.164 12.7236H114.101C116.915 12.7236 119.215 15.0181 119.215 17.8757H118.031C118.031 15.6807 116.264 13.9172 114.101 13.9172H109.164Z" fill="#66B0F0"/>
<path d="M109.402 53.0649H99.9036C97.4747 53.0649 95.5 51.0757 95.5 48.629V39.0609C95.5 36.6142 97.4747 34.625 99.9036 34.625H109.402C111.831 34.625 113.805 36.6142 113.805 39.0609V48.629C113.786 51.0757 111.831 53.0649 109.402 53.0649Z" fill="white"/>
<path fill-rule="evenodd" clip-rule="evenodd" d="M99.9032 35.2218C97.8015 35.2218 96.092 36.9439 96.092 39.061V48.629C96.092 50.7462 97.8015 52.4682 99.9032 52.4682H109.401C111.498 52.4682 113.194 50.7508 113.213 48.6265V39.061C113.213 36.9439 111.503 35.2218 109.401 35.2218H99.9032ZM94.9072 39.061C94.9072 36.2847 97.1472 34.0283 99.9032 34.0283H109.401C112.158 34.0283 114.397 36.2847 114.397 39.061V48.6315L114.397 48.6339C114.375 51.402 112.162 53.6617 109.401 53.6617H99.9032C97.1472 53.6617 94.9072 51.4053 94.9072 48.629V39.061Z" fill="#66B0F0"/>
<path d="M106.933 49.9022H102.293C100.298 49.9022 98.6592 48.271 98.6592 46.242V41.5674C98.6592 39.5583 100.278 37.9072 102.293 37.9072H106.933C108.928 37.9072 110.567 39.5384 110.567 41.5674V46.242C110.567 48.271 108.947 49.9022 106.933 49.9022Z" fill="white"/>
<path fill-rule="evenodd" clip-rule="evenodd" d="M102.293 38.5041C100.608 38.5041 99.2522 39.8858 99.2522 41.5674V46.2421C99.2522 47.9394 100.624 49.3054 102.293 49.3054H106.934C108.621 49.3054 109.975 47.9415 109.975 46.2421V41.5674C109.975 39.8701 108.603 38.5041 106.934 38.5041H102.293ZM98.0674 41.5674C98.0674 39.2309 99.9498 37.3105 102.293 37.3105H106.934C109.253 37.3105 111.16 39.2068 111.16 41.5674V46.2421C111.16 48.6006 109.275 50.499 106.934 50.499H102.293C99.9737 50.499 98.0674 48.6027 98.0674 46.2421V41.5674Z" fill="#66B0F0"/>
<path fill-rule="evenodd" clip-rule="evenodd" d="M100.041 49.0863L108.295 38.0264L109.242 38.7436L100.988 49.8035L100.041 49.0863Z" fill="#66B0F0"/>
<path fill-rule="evenodd" clip-rule="evenodd" d="M98.4238 47.1946L105.572 37.6465L106.518 38.3651L99.3698 47.9132L98.4238 47.1946Z" fill="#66B0F0"/>
<path fill-rule="evenodd" clip-rule="evenodd" d="M102.746 49.5423L109.895 39.9941L110.841 40.7128L103.692 50.261L102.746 49.5423Z" fill="#66B0F0"/>
<path fill-rule="evenodd" clip-rule="evenodd" d="M105.611 49.5432L110.094 43.5557L111.04 44.2743L106.557 50.2618L105.611 49.5432Z" fill="#66B0F0"/>
<path fill-rule="evenodd" clip-rule="evenodd" d="M98.2061 43.5942L102.669 37.6465L103.614 38.3662L99.1512 44.3139L98.2061 43.5942Z" fill="#66B0F0"/>
<path fill-rule="evenodd" clip-rule="evenodd" d="M97.0193 325.803V314.843H98.2041V325.803C98.2041 331.424 93.6735 335.988 88.0937 335.988H63.6865V334.794H88.0937C93.0192 334.794 97.0193 330.765 97.0193 325.803Z" fill="#66B0F0"/>
<path fill-rule="evenodd" clip-rule="evenodd" d="M106.124 415.517V314.963H107.309V415.517H106.124Z" fill="#66B0F0"/>
<path fill-rule="evenodd" clip-rule="evenodd" d="M101.72 416.113C80.2864 416.113 63.1145 430.395 63.1145 447.762H61.9297C61.9297 429.521 79.8677 414.92 101.72 414.92H111.554C133.406 414.92 151.344 429.521 151.344 447.762H150.159C150.159 430.395 132.987 416.113 111.554 416.113H101.72Z" fill="#66B0F0"/>
<path d="M201.677 316.494H58.3148C51.1269 316.494 45.3213 310.626 45.3213 303.405H205.074L201.677 316.494Z" fill="#FFCF2D"/>
<path d="M61.6537 469.085C67.4993 469.085 72.2381 464.311 72.2381 458.423C72.2381 452.534 67.4993 447.761 61.6537 447.761C55.8081 447.761 51.0693 452.534 51.0693 458.423C51.0693 464.311 55.8081 469.085 61.6537 469.085Z" fill="#FFCF2D"/>
<path d="M56.2609 338.117H77.5085C79.2462 338.117 80.6483 336.705 80.6483 334.954V334.715C80.6483 332.965 79.2462 331.553 77.5085 331.553H56.2609C54.5231 331.553 53.1211 332.965 53.1211 334.715V334.954C53.1211 336.705 54.5231 338.117 56.2609 338.117Z" fill="#FFCF2D"/>
<path fill-rule="evenodd" clip-rule="evenodd" d="M11.9054 211.286C9.28024 203.857 14.7392 196.048 22.574 196.048H97.3555C104.636 196.048 111.119 200.663 113.573 207.563L113.573 207.564L147.879 304.4H44.9049L11.9054 211.286ZM13.0215 210.886C10.6709 204.232 15.5593 197.241 22.574 197.241H97.3555C104.134 197.241 110.172 201.538 112.457 207.966L146.198 303.206H45.7399L13.0217 210.886C13.0216 210.886 13.0215 210.886 13.0215 210.886Z" fill="#FFCF2D"/>
<path fill-rule="evenodd" clip-rule="evenodd" d="M15.0703 199.608H90.7799C97.8237 199.608 104.089 204.064 106.464 210.746L106.464 210.746L139.625 304.4H50.358V303.206H137.944L105.348 211.148C103.142 204.94 97.3219 200.802 90.7799 200.802H15.0703V199.608Z" fill="#FFCF2D"/>
<path d="M150.573 469.085C156.418 469.085 161.157 464.311 161.157 458.423C161.157 452.534 156.418 447.761 150.573 447.761C144.727 447.761 139.988 452.534 139.988 458.423C139.988 464.311 144.727 469.085 150.573 469.085Z" fill="#FFCF2D"/>
</svg>
