<svg width="539" height="461" viewBox="0 0 539 461" fill="none" xmlns="http://www.w3.org/2000/svg">
<path d="M499 136C497 147 495 157 492 163C487 173 476 179 476 179C476 179 479 158 478 128C464 -73 405 23 269 23C133 23 74 -73 61 129C60 158 63 180 63 180C63 180 52 174 47 164C44 158 42 148 40 137C22 132 0 136 0 189C0 222 12 248 51 251C68 383 98 404 197 451C222 463 239 460 269 460C299 460 316 463 342 451C442 404 472 383 488 251C527 248 539 221 539 189C539 136 516 132 499 136" fill="#FFDD67"/>
</svg>
