<svg width="96" height="124" viewBox="0 0 96 124" fill="none" xmlns="http://www.w3.org/2000/svg">
<path d="M41.7 70.3947L71.4 40.0463L62.85 31.3097L41.7 52.9214L33.3 44.338L24.75 53.0747L41.7 70.3947ZM48 107.181C60.2 95.736 69.25 85.3379 75.15 75.9861C81.05 66.6384 84 58.3371 84 51.0821C84 39.9442 80.524 30.8233 73.572 23.7196C66.624 16.6199 58.1 13.0701 48 13.0701C37.9 13.0701 29.374 16.6199 22.422 23.7196C15.474 30.8233 12 39.9442 12 51.0821C12 58.3371 14.95 66.6384 20.85 75.9861C26.75 85.3379 35.8 95.736 48 107.181ZM48 123.428C31.9 109.429 19.876 96.4248 11.928 84.4162C3.976 72.4118 0 61.3004 0 51.0821C0 35.7547 4.826 23.5438 14.478 14.4495C24.126 5.35524 35.3 0.808105 48 0.808105C60.7 0.808105 71.874 5.35524 81.522 14.4495C91.174 23.5438 96 35.7547 96 51.0821C96 61.3004 92.026 72.4118 84.078 84.4162C76.126 96.4248 64.1 109.429 48 123.428Z" fill="#00F562"/>
</svg>
