<svg width="40" height="52" viewBox="0 0 40 52" fill="none" xmlns="http://www.w3.org/2000/svg">
<path d="M17.375 28.9944L29.75 16.3493L26.1875 12.709L17.375 21.7139L13.875 18.1375L10.3125 21.7777L17.375 28.9944ZM20 44.3218C25.0833 39.5533 28.8542 35.2207 31.3125 31.3242C33.7708 27.4293 35 23.9704 35 20.9475C35 16.3067 33.5517 12.5063 30.655 9.54644C27.76 6.58824 24.2083 5.10915 20 5.10915C15.7917 5.10915 12.2392 6.58824 9.3425 9.54644C6.4475 12.5063 5 16.3067 5 20.9475C5 23.9704 6.22917 27.4293 8.6875 31.3242C11.1458 35.2207 14.9167 39.5533 20 44.3218ZM20 51.0915C13.2917 45.2585 8.28167 39.8403 4.97 34.8367C1.65667 29.8349 0 25.2051 0 20.9475C0 14.5611 2.01083 9.47321 6.0325 5.68392C10.0525 1.89464 14.7083 0 20 0C25.2917 0 29.9475 1.89464 33.9675 5.68392C37.9892 9.47321 40 14.5611 40 20.9475C40 25.2051 38.3442 29.8349 35.0325 34.8367C31.7192 39.8403 26.7083 45.2585 20 51.0915Z" fill="#00F562"/>
</svg>
