<svg width="82" height="104" viewBox="0 0 82 104" fill="none" xmlns="http://www.w3.org/2000/svg">
<path d="M47.8831 91.4502C36.0132 87.5099 25.3182 80.4707 20.2116 68.1246C15.6025 56.9808 18.4523 45.4524 31.9999 44.776C38.4131 44.4557 46.0491 48.4957 47.3357 55.3712C48.7691 63.031 40.9381 65.4913 36.3644 63.456C25.6819 58.7025 34.0109 40.7594 38.5855 28.0774C44.0029 13.0589 33.6758 0.549587 33.5968 0.623994" stroke="white" stroke-miterlimit="1.5" stroke-linecap="round" stroke-linejoin="round"/>
<path d="M35.2992 98.4658C36.169 97.3023 37.3948 96.6184 38.5865 95.8725C42.4993 93.423 47.4216 92.0451 51.8807 93.0032C47.6695 90.4429 43.0969 85.6173 43.1882 80.2194" stroke="white" stroke-miterlimit="1.5" stroke-linecap="round" stroke-linejoin="round"/>
</svg>
