<svg width="139" height="89" viewBox="0 0 139 89" fill="none" xmlns="http://www.w3.org/2000/svg">
<path fill-rule="evenodd" clip-rule="evenodd" d="M119.639 79.9222C119.914 79.9375 120.15 79.7263 120.165 79.4506C121.202 60.6707 117.259 41.7386 102.724 27.7053C96.1696 21.3775 88.3939 17.564 81.1389 17.7216C73.838 17.8803 67.1803 22.0576 62.9222 31.4525C62.8234 31.6707 62.7278 31.8913 62.6355 32.1142C56.4431 31.5017 49.7836 31.3976 43.5675 31.3004C41.1301 31.2624 38.7609 31.2253 36.5147 31.1591C24.7219 30.8116 15.9196 25.3943 10.0717 20.0371C7.14805 17.3587 4.96823 14.6998 3.52983 12.7084C2.81073 11.7129 2.2782 10.8859 1.93168 10.309C1.75814 10.02 1.63279 9.79642 1.5546 9.64748C1.52172 9.58486 1.49939 9.53965 1.48586 9.51049C1.47805 9.47856 1.46697 9.44695 1.45244 9.41606C1.33492 9.16617 1.03708 9.05886 0.787191 9.17638C0.591069 9.26862 0.529195 9.44206 0.511634 9.51806C0.493792 9.59528 0.498669 9.6583 0.501085 9.68299C0.506448 9.73783 0.51976 9.78119 0.52447 9.79629C0.536548 9.83502 0.552111 9.87191 0.563615 9.89798C0.588911 9.9553 0.62514 10.0284 0.669211 10.1123C0.758669 10.2827 0.894055 10.5236 1.07444 10.8239C1.43577 11.4254 1.98389 12.276 2.71918 13.294C4.18956 15.3296 6.41351 18.042 9.39624 20.7744C15.3612 26.2389 24.3824 31.802 36.4853 32.1587C38.7646 32.2259 41.1569 32.2634 43.6095 32.3018C49.7253 32.3977 56.2155 32.4994 62.2609 33.0817C60.764 37.2258 60.3661 42.0408 61.2389 46.5405C62.2295 51.6472 64.8669 56.3896 69.4456 59.2643C71.9924 60.8633 74.4317 61.4648 76.6604 61.3165C78.8871 61.1682 80.866 60.2739 82.4985 58.9429C85.7473 56.2941 87.6676 51.8814 87.4995 47.9785C87.304 43.4381 85.2268 40.1318 81.9219 37.7458C78.6401 35.3765 74.1574 33.9189 69.1241 33.0013C67.3733 32.6822 65.5484 32.4273 63.6753 32.2224C63.7268 32.1026 63.7794 31.9836 63.833 31.8653C67.9594 22.761 74.3058 18.8704 81.1606 18.7214C88.0611 18.5714 95.5927 22.2105 102.029 28.4247C116.278 42.1819 120.194 60.7783 119.167 79.3954C119.152 79.6712 119.363 79.907 119.639 79.9222ZM63.288 33.1858C65.2348 33.3933 67.1298 33.6543 68.9447 33.9851C73.9199 34.8921 78.2318 36.3151 81.3365 38.5566C84.4182 40.7814 86.3194 43.8162 86.5004 48.0215C86.6549 51.6075 84.872 55.7175 81.8666 58.1679C80.3718 59.3866 78.5857 60.1861 76.594 60.3187C74.6042 60.4511 72.3716 59.9206 69.9773 58.4173C65.6857 55.7229 63.1717 51.2529 62.2206 46.3501C61.3647 41.9373 61.7831 37.2077 63.288 33.1858ZM1.21276 10.0813C1.28854 10.0457 1.3441 9.99786 1.38471 9.94837C1.33929 10.0031 1.28141 10.049 1.21276 10.0813Z" fill="white"/>
<path fill-rule="evenodd" clip-rule="evenodd" d="M119.635 86.3445C119.879 86.3437 120.087 86.1669 120.127 85.9261C121.214 79.3534 125.739 73.3578 131.23 69.3051L131.23 69.3051C131.411 69.1717 131.589 69.0385 131.767 68.9062C133.284 67.775 134.704 66.7161 136.483 66.2308C136.749 66.1581 136.906 65.8832 136.834 65.6168C136.761 65.3504 136.486 65.1934 136.22 65.266C134.246 65.8045 132.669 66.9828 131.172 68.1016C130.992 68.2359 130.814 68.3693 130.636 68.5006C125.631 72.1948 121.345 77.5051 119.651 83.4862C118.9 80.4288 117.664 77.2152 115.912 74.3552C113.72 70.7756 110.698 67.7159 106.777 66.2457C106.518 66.1487 106.23 66.2797 106.133 66.5383C106.036 66.7969 106.167 67.0851 106.426 67.182C110.074 68.5498 112.942 71.4193 115.06 74.8775C117.177 78.3343 118.523 82.3457 119.141 85.9294C119.182 86.1699 119.391 86.3453 119.635 86.3445Z" fill="white"/>
</svg>
