<svg width="176" height="174" viewBox="0 0 176 174" fill="none" xmlns="http://www.w3.org/2000/svg">
<path d="M118.872 6.10762L116.037 14.0319L111.67 3.53162L107.995 2.21667L104.222 12.7622L106.934 13.7323L109.763 5.82311L114.12 16.3029L117.811 17.6232L121.583 7.07766L118.872 6.10762Z" fill="white"/>
<path d="M141.365 22.0401L142.817 20.1095L133.356 12.9911L126.622 21.9409L128.924 23.6724L131.03 20.8724L137.423 25.6821L138.885 23.7387L132.493 18.929L134.205 16.6532L141.365 22.0401Z" fill="white"/>
<path d="M159.976 39.3605L151.83 28.271L149.883 29.7013L153.103 34.0855L146.024 39.2859L147.729 41.6069L154.808 36.4066L158.029 40.7908L159.976 39.3605Z" fill="white"/>
<path d="M173.834 82.1618L173.374 78.3011L164.97 74.5823L172.263 68.9911L171.803 65.1305L160.682 66.4571L161.023 69.3168L168.649 68.4071L161.574 73.94L161.821 76.0054L169.998 79.719L162.372 80.6286L162.713 83.4883L173.834 82.1618Z" fill="white"/>
<path d="M159.905 105.899L159.168 108.996L171.405 105.957L172.305 102.174L162.748 93.9609L162.014 97.0427L164.055 98.7623L162.502 105.284L159.905 105.899ZM165.893 100.302L169.783 103.58L164.836 104.738L165.893 100.302Z" fill="white"/>
<path d="M155.081 132.951C157.21 134.254 159.499 133.61 160.826 131.44L165.42 123.934L155.867 118.088L154.364 120.544L156.916 122.106L154.494 126.064L150.998 126.044L149.227 128.937L153.143 128.914C152.863 130.506 153.525 131.999 155.081 132.951ZM161.856 125.129L159.183 129.496C158.732 130.233 158.031 131.38 156.584 130.494C155.151 129.618 155.853 128.471 156.304 127.734L158.976 123.367L161.856 125.129Z" fill="white"/>
<path d="M139.315 155.157L142.638 152.323L144.943 142.722L148.712 147.141L150.903 145.272L143.635 136.751L141.444 138.62L142.835 140.251L141.848 144.395L135.077 144.051L132.046 146.636L141.247 146.969L139.315 155.157Z" fill="white"/>
<path d="M116.532 164.814L117.423 166.922L128.328 162.31L123.966 151.994L113.061 156.606L113.952 158.713L122.204 155.223L123.089 157.316L114.837 160.806L115.647 162.722L123.899 159.232L124.784 161.324L116.532 164.814Z" fill="white"/>
<path d="M92.1612 172.103L105.841 170.622L105.581 168.22L100.173 168.806L99.2268 160.073L96.3635 160.383L97.3094 169.116L91.901 169.702L92.1612 172.103Z" fill="white"/>
<path d="M70.8422 170.371L79.4778 172.064L81.6326 161.073L78.8064 160.519L78.2307 163.455L72.4213 162.317C69.9249 161.827 67.9056 163.062 67.4254 165.511C66.9452 167.96 68.3457 169.882 70.8422 170.371ZM72.7416 164.841L77.7659 165.826L77.1164 169.139L72.0921 168.154C71.2442 167.988 69.9253 167.729 70.2516 166.065C70.5748 164.417 71.8937 164.675 72.7416 164.841Z" fill="white"/>
<path d="M56.4216 156.731L52.3925 164.536L54.9516 165.857L60.089 155.905L49.8524 150.621L48.7442 152.767L56.4216 156.731Z" fill="white"/>
<path d="M33.678 137.657L31.41 135.422L27.6748 147.465L30.4443 150.194L42.4195 146.27L40.1629 144.047L37.6349 144.903L32.8595 140.198L33.678 137.657ZM35.3665 145.678L30.5474 147.308L32.1183 142.477L35.3665 145.678Z" fill="white"/>
<path d="M20.3182 130.582C23.6451 128.9 24.5199 126.091 22.2963 121.693C20.2822 117.709 17.7437 116.483 14.7151 117.691L16.0362 120.304C17.7868 119.724 19.0646 120.655 20.1402 122.783C21.4541 125.382 21.0748 126.972 19.0187 128.011C16.9768 129.044 15.4928 128.414 14.1717 125.801C13.0888 123.659 13.089 122.099 14.5798 121.04L13.2587 118.427C10.5043 120.143 10.0015 122.907 12.0156 126.891C14.2391 131.289 17.0055 132.257 20.3182 130.582Z" fill="white"/>
<path d="M4.77008 96.3134L2.51555 96.7033L4.53342 108.37L15.5696 106.461L13.5517 94.7945L11.2972 95.1845L12.8242 104.013L10.5854 104.401L9.05841 95.5717L7.00884 95.9262L8.53587 104.755L6.29711 105.142L4.77008 96.3134Z" fill="white"/>
<path d="M17.7822 58.1763L15.568 59.313C14.8967 58.5257 13.9393 57.949 12.7208 57.5571C9.20222 56.4257 6.60112 57.8246 5.09748 62.5008C3.58893 67.1923 4.87687 69.8249 8.41067 70.9612C11.9597 72.1024 14.5559 70.7187 16.0644 66.0273C16.5689 64.4584 16.7622 63.1256 16.659 61.9832L19.0947 60.7327L17.7822 58.1763ZM9.29228 68.2195C7.11412 67.5191 6.47669 66.104 7.39749 63.2404C8.31829 60.3768 9.67624 59.6034 11.8392 60.2989C14.0173 60.9993 14.6803 62.4394 13.7644 65.2877C12.8485 68.1361 11.4857 68.9248 9.29228 68.2195Z" fill="white"/>
<path d="M22.1118 34.4081L20.246 33.0838L13.3932 42.7391L22.5267 49.2215L29.3794 39.5662L27.5136 38.2419L22.3277 45.5486L20.4749 44.2337L25.6608 36.9269L23.9646 35.7231L18.7787 43.0298L16.926 41.7148L22.1118 34.4081Z" fill="white"/>
<path d="M38.8693 18.3441L37.4391 16.5582L28.1975 23.9595L35.1987 32.7015L44.4403 25.3002L43.01 23.5144L36.0164 29.1153L34.5962 27.3419L41.5898 21.741L40.2896 20.1175L33.296 25.7184L31.8757 23.945L38.8693 18.3441Z" fill="white"/>
<path d="M61.0986 9.94024C61.3885 9.15349 61.4021 8.3216 61.1124 7.59307C60.5036 6.06167 59.2962 5.14702 56.9322 6.08691L47.7735 9.72827L51.9114 20.1359L61.4269 16.3526C63.7909 15.4127 64.3085 13.7262 63.6109 11.9718C63.1321 10.7675 62.2094 10.1357 61.0986 9.94024ZM51.2182 10.5971L56.7343 8.40398C57.4628 8.11433 58.117 7.85423 58.5426 8.92473C58.9741 10.0101 58.3199 10.2702 57.6063 10.5539L57.5914 10.5598L52.0754 12.7529L51.2182 10.5971ZM59.9511 14.5461L53.766 17.0052L52.8911 14.8047L59.0762 12.3456C59.7899 12.0619 60.4441 11.8018 60.8815 12.902C61.3189 14.0022 60.6647 14.2623 59.9511 14.5461Z" fill="white"/>
</svg>
