<svg width="22" height="24" viewBox="0 0 22 24" fill="none" xmlns="http://www.w3.org/2000/svg">
<path d="M1.5603 23.2498C1.31166 23.2498 1.07321 23.1511 0.89739 22.9753C0.721575 22.7994 0.622803 22.561 0.622803 22.3123V1.68734C0.622831 1.52443 0.66531 1.36434 0.746053 1.22285C0.826796 1.08135 0.943017 0.963343 1.08326 0.880447C1.2235 0.797551 1.38292 0.75263 1.54581 0.750112C1.70871 0.747594 1.86944 0.787567 2.01218 0.86609L20.7622 11.1786C20.9092 11.2595 21.0317 11.3784 21.1171 11.5229C21.2025 11.6673 21.2475 11.832 21.2475 11.9998C21.2475 12.1676 21.2025 12.3324 21.1171 12.4768C21.0317 12.6213 20.9092 12.7402 20.7622 12.8211L2.01218 23.1336C1.87376 23.2098 1.71832 23.2498 1.5603 23.2498Z" fill="white"/>
</svg>
